<?xml version="1.0" encoding="UTF-8"?>
<svg version="1.1" xmlns="http://www.w3.org/2000/svg" width="2500" height="2480">
<path d="M0 0 C1.17345912 -0.00177501 2.34691824 -0.00355002 3.55593672 -0.00537882 C6.82465284 -0.00930516 10.09333323 -0.00874396 13.36204969 -0.00632112 C16.92708232 -0.00478009 20.49210882 -0.00903483 24.0571394 -0.01254788 C30.33328951 -0.01792553 36.60943214 -0.01956443 42.88558438 -0.01879714 C52.28141019 -0.01766273 61.67722726 -0.02223956 71.0730511 -0.02792798 C87.0850055 -0.03744524 103.09695815 -0.04214802 119.10891509 -0.04423732 C135.34163838 -0.04636473 151.57435898 -0.050622 167.80708098 -0.05748004 C169.34350698 -0.05812596 169.34350698 -0.05812596 170.91097189 -0.05878493 C175.08256619 -0.06054325 179.2541605 -0.06231289 183.42575479 -0.06409795 C234.01945115 -0.08570522 284.61314803 -0.09657786 335.20684795 -0.10557419 C351.61202642 -0.10850759 368.01720475 -0.11187741 384.42238307 -0.1155414 C385.5795125 -0.11579969 386.73664192 -0.11605798 387.92883588 -0.1163241 C392.61006476 -0.11737031 397.29129363 -0.11841873 401.97252251 -0.11946992 C482.04753134 -0.13743528 562.12254037 -0.15281473 642.19755093 -0.16022895 C648.48827825 -0.16081293 654.77900557 -0.16141019 661.06973289 -0.16200657 C662.31762208 -0.16212469 663.56551126 -0.16224281 664.85121527 -0.16236451 C677.49422989 -0.16356191 690.1372445 -0.16477066 702.78025911 -0.16599704 C705.31523396 -0.16624227 707.85020882 -0.16648613 710.38518367 -0.16672861 C791.80129799 -0.17451853 873.21739791 -0.19690196 954.63350593 -0.22940504 C1013.12715218 -0.2527491 1071.62079557 -0.27430169 1130.1144464 -0.28141135 C1131.31728046 -0.28155837 1132.52011451 -0.28170539 1133.75939808 -0.28185687 C1160.16416489 -0.28504163 1186.56893168 -0.28709256 1212.97369866 -0.28808442 C1223.59786347 -0.28849916 1234.22202827 -0.28905406 1244.84619308 -0.28964633 C1246.00894901 -0.289707 1247.17170494 -0.28976766 1248.3696959 -0.28983017 C1285.83163194 -0.29184654 1323.29355097 -0.30608779 1360.75548107 -0.32659133 C1398.48829479 -0.3471699 1436.22108883 -0.35506762 1473.9539076 -0.34551357 C1479.16829901 -0.34419511 1484.38269044 -0.34301707 1489.5970819 -0.34192294 C1490.61924526 -0.34170309 1491.64140863 -0.34148324 1492.69454664 -0.34125673 C1508.87838812 -0.33814265 1525.06219198 -0.34846798 1541.24602474 -0.36439849 C1557.16068121 -0.37978521 1573.07528567 -0.38090017 1588.98994396 -0.36685025 C1598.31929154 -0.35904199 1607.64848017 -0.36214788 1616.97781186 -0.38148742 C1623.17860165 -0.39324506 1629.37927563 -0.39041527 1635.5800592 -0.37587277 C1639.09208924 -0.36804028 1642.60380892 -0.36624416 1646.11581716 -0.38249181 C1678.12614866 -0.50175344 1706.18106531 6.04151763 1729.59595656 29.13661367 C1753.43122847 53.46405933 1760.67713334 81.92438059 1760.61698765 115.3415432 C1760.61810742 116.73650515 1760.61966454 118.13146681 1760.62161355 119.52642785 C1760.62569281 123.34555579 1760.62360238 127.16465867 1760.62046768 130.98378656 C1760.61815506 135.15955542 1760.62167702 139.3353202 1760.6244345 143.51108822 C1760.62848164 150.85311425 1760.62881709 158.1951332 1760.62672856 165.53715994 C1760.62361909 176.52853468 1760.62626821 187.51990293 1760.63002726 198.5112772 C1760.63626233 217.24453014 1760.63773318 235.97778077 1760.63660979 254.7110346 C1760.63548561 273.69667746 1760.6365185 292.68231837 1760.64018226 311.66796094 C1760.64041191 312.86688887 1760.64064156 314.06581679 1760.64087818 315.30107586 C1760.64181981 320.18409143 1760.64277549 325.06710699 1760.64374937 329.95012256 C1760.65375955 380.21496213 1760.65694136 430.47980087 1760.6575178 480.74464123 C1760.65758105 486.22651303 1760.65764757 491.70838484 1760.65771835 497.19025665 C1760.65773605 498.56426055 1760.65775342 499.93826446 1760.65777048 501.31226836 C1760.65815831 532.15300938 1760.66033707 562.99375017 1760.66290073 593.83449108 C1760.66347229 600.71821425 1760.66402626 607.60193742 1760.66458136 614.48566059 C1760.66463648 615.16896469 1760.66469161 615.8522688 1760.6647484 616.5562791 C1760.6650829 620.70407718 1760.66541667 624.85187527 1760.66574996 628.99967336 C1760.66591704 631.07751053 1760.66608455 633.1553477 1760.6662521 635.23318487 C1760.66885394 667.5395021 1760.67108425 699.84581935 1760.67293429 732.15213662 C1760.67297466 732.85603778 1760.67301503 733.55993893 1760.67305663 734.28517042 C1760.67561965 779.13846705 1760.67651914 823.99176354 1760.6762563 868.84506023 C1760.67624354 871.05053679 1760.67623158 873.25601335 1760.67621988 875.4614899 C1760.67613754 890.95573865 1760.67603483 906.4499874 1760.675927 921.94423616 C1760.67589623 926.38673988 1760.67586617 930.82924361 1760.67583619 935.27174734 C1760.6758111 938.97737399 1760.67578531 942.68300065 1760.67575808 946.38862731 C1760.67524665 1016.37926932 1760.67666472 1086.36991019 1760.68610549 1156.36055166 C1760.68625453 1157.46586692 1760.68625453 1157.46586692 1760.68640658 1158.5935118 C1760.68951795 1181.61723784 1760.69288444 1204.64096384 1760.69629836 1227.66468984 C1760.69979981 1251.28912112 1760.70327029 1274.9135524 1760.70656276 1298.53798372 C1760.70666428 1299.26540489 1760.70676581 1299.99282606 1760.70687041 1300.7422903 C1760.71322002 1346.30202684 1760.71714152 1391.86176306 1760.71842074 1437.42150003 C1760.71844077 1438.12520128 1760.7184608 1438.82890253 1760.71848143 1439.55392806 C1760.71935677 1470.45931426 1760.71967652 1501.36470044 1760.71939055 1532.27008664 C1760.71927627 1544.7034493 1760.7192202 1557.13681196 1760.71918723 1569.57017462 C1760.71918083 1571.63166062 1760.71917175 1573.69314662 1760.71916208 1575.75463263 C1760.71902561 1607.28154453 1760.72037015 1638.80845537 1760.72620726 1670.33536679 C1760.72639576 1671.35494843 1760.72639576 1671.35494843 1760.72658808 1672.39512768 C1760.72861705 1683.32897556 1760.73076109 1694.26282341 1760.73291489 1705.19667126 C1760.74173544 1750.01120375 1760.74426185 1794.82573269 1760.73755457 1839.64026593 C1760.73664226 1845.73772264 1760.73579899 1851.83517936 1760.73499656 1857.93263608 C1760.73475643 1859.72555041 1760.73475643 1859.72555041 1760.73451144 1861.55468522 C1760.73215758 1880.48785035 1760.73651799 1899.42100775 1760.74366774 1918.35417143 C1760.75055627 1936.96709081 1760.75031714 1955.57999876 1760.74247561 1974.19291789 C1760.73809093 1985.10721753 1760.73917366 1996.0214835 1760.74834239 2006.93578035 C1760.75388617 2014.18606387 1760.75216444 2021.43632229 1760.74455961 2028.68660388 C1760.74045231 2032.79544367 1760.73939727 2036.90421726 1760.7473103 2041.01305299 C1760.81377178 2078.06823268 1757.8079269 2112.49466714 1730.49048781 2140.23036367 C1705.62022773 2164.60513657 1677.68025679 2170.78298527 1644.12087653 2170.6384358 C1640.54899577 2170.62758183 1636.97717835 2170.64027631 1633.40530431 2170.64978319 C1627.13575506 2170.66329085 1620.86634518 2170.66207672 1614.59679306 2170.65104902 C1605.21106803 2170.63461502 1595.82545513 2170.64140749 1586.43972743 2170.65257958 C1570.44033444 2170.6709482 1554.44099238 2170.67039488 1538.44159484 2170.65945607 C1522.23325356 2170.64844199 1506.02494577 2170.64613697 1489.81660247 2170.65440542 C1488.27966001 2170.65518045 1488.27966001 2170.65518045 1486.71166821 2170.65597114 C1482.53835643 2170.65810428 1478.36504469 2170.66029912 1474.19173298 2170.66257225 C1435.34047535 2170.68371886 1396.48924016 2170.68516913 1357.63797927 2170.67398244 C1356.48723652 2170.67365126 1355.33649377 2170.67332008 1354.15088003 2170.67297886 C1352.42199955 2170.67248128 1352.42199955 2170.67248128 1350.65819219 2170.67197365 C1315.5432772 2170.66188076 1280.42837148 2170.65927543 1245.31345534 2170.66406423 C1242.96195461 2170.66437415 1240.61045388 2170.66468277 1238.25895315 2170.66499011 C1228.80923376 2170.66623198 1219.35951438 2170.66750664 1209.90979501 2170.66882916 C1183.49395893 2170.67249719 1157.07812282 2170.6747796 1130.66228652 2170.67597371 C1129.45937444 2170.6760283 1128.25646236 2170.67608288 1127.0170984 2170.67613912 C1088.68741075 2170.67777621 1050.35772633 2170.67326874 1012.02803969 2170.6645754 C1010.78486075 2170.6642944 1009.5416818 2170.66401341 1008.26083076 2170.66372389 C988.07244143 2170.65914411 967.88405218 2170.65426625 947.69566293 2170.6493632 C867.62628571 2170.62993787 787.55693523 2170.63083949 707.48755813 2170.65028554 C687.30935076 2170.65517031 667.13114338 2170.66001451 646.95293593 2170.6645754 C645.71048828 2170.66485719 644.46804062 2170.66513898 643.18794304 2170.66542932 C604.8981913 2170.67405411 566.60844179 2170.67771114 528.31868911 2170.67597371 C527.11666049 2170.67591938 525.91463186 2170.67586504 524.67617813 2170.67580906 C498.28968432 2170.67455914 471.90319074 2170.67202458 445.51669715 2170.6683317 C436.0754285 2170.66701514 426.63415983 2170.66576281 417.19289116 2170.66452886 C414.84415193 2170.6642193 412.49541269 2170.66390438 410.14667346 2170.66358407 C375.04114359 2170.65880976 339.93562417 2170.66287537 304.8300956 2170.67297886 C303.67935285 2170.67331004 302.5286101 2170.67364122 301.34299636 2170.67398244 C300.19437666 2170.67431317 299.04575696 2170.6746439 297.8623306 2170.67498465 C259.12310555 2170.6860171 220.38390743 2170.68195999 181.64468622 2170.66085947 C177.4845819 2170.65865005 173.32447754 2170.65650324 169.16437316 2170.65440542 C168.14341371 2170.65388459 167.12245426 2170.65336376 166.07055665 2170.65282715 C149.90603507 2170.64493835 133.74154698 2170.65042974 117.57702842 2170.66148144 C101.68171162 2170.67206399 85.78645131 2170.66834573 69.89114167 2170.64942509 C60.57341261 2170.63875686 51.2558385 2170.63896226 41.93811687 2170.65535148 C35.74512651 2170.66514686 29.55225647 2170.66036725 23.35928062 2170.64388406 C19.85172459 2170.63495071 16.34447643 2170.63204218 12.83693452 2170.64715013 C-8.42848059 2170.71958793 -26.37520423 2168.80286529 -45.50951219 2159.12880117 C-46.5678325 2158.59384023 -47.62615281 2158.05887929 -48.71654344 2157.50770742 C-71.54898378 2145.02916531 -89.29207796 2122.97115514 -96.79857469 2098.05458242 C-98.99158337 2090.23184491 -100.63527425 2082.66651492 -100.63256001 2074.51838285 C-100.63429078 2073.55575549 -100.63429078 2073.55575549 -100.63605651 2072.57368112 C-100.63870001 2070.42671438 -100.63421976 2068.27982288 -100.6297667 2066.13286 C-100.63020287 2064.57675656 -100.63107861 2063.02065318 -100.63235587 2061.4645502 C-100.63459192 2057.19110515 -100.63059168 2052.91768516 -100.62557781 2048.6442433 C-100.62126075 2044.03489875 -100.62272063 2039.42555562 -100.62348008 2034.81620961 C-100.62400452 2026.83105428 -100.62086608 2018.84590711 -100.61524224 2010.86075383 C-100.60711641 1999.31555156 -100.60451091 1987.77035324 -100.60325425 1976.22514842 C-100.60106544 1957.49397444 -100.59440997 1938.76280482 -100.58495164 1920.0316332 C-100.57577311 1901.83566988 -100.56869443 1883.63970774 -100.56444383 1865.44374257 C-100.5641811 1864.32220858 -100.56391838 1863.20067458 -100.56364769 1862.04515471 C-100.56234266 1856.41876773 -100.56107895 1850.79238074 -100.55983579 1845.16599375 C-100.5494685 1798.48692654 -100.53185481 1751.80786408 -100.50951219 1705.12880117 C-102.1883731 1705.13107949 -102.1883731 1705.13107949 -103.90115041 1705.13340384 C-153.24988637 1705.20010929 -202.59862522 1705.26181625 -251.94739366 1705.29817373 C-252.69502706 1705.29872595 -253.44266046 1705.29927818 -254.21294942 1705.29984714 C-270.4627555 1705.31182 -286.71256207 1705.32290055 -302.96236938 1705.33306248 C-310.93177842 1705.33805164 -318.90118732 1705.34323788 -326.87059617 1705.34852773 C-327.66362958 1705.34905077 -328.45666299 1705.3495738 -329.27372771 1705.35011269 C-354.95788296 1705.3671447 -380.64200291 1705.39717992 -406.32613679 1705.43399005 C-432.72960976 1705.47176221 -459.13306322 1705.49635263 -485.53656276 1705.50446113 C-489.26963236 1705.50561367 -493.0027019 1705.50691622 -496.73577142 1705.50831014 C-497.47046128 1705.50857983 -498.20515115 1705.50884952 -498.96210434 1705.50912739 C-510.7676561 1705.51384617 -522.57314733 1705.53237652 -534.37867446 1705.5561293 C-546.25990125 1705.57973755 -558.1410683 1705.58865829 -570.0223177 1705.58280668 C-576.45471464 1705.58024791 -582.88693457 1705.58413594 -589.31929994 1705.60562307 C-595.21634742 1705.6251775 -601.1130999 1705.62601349 -607.01016135 1705.61239675 C-609.13562395 1705.61071535 -611.26110543 1705.61571363 -613.38653123 1705.6283339 C-629.0004638 1705.71560197 -643.6235877 1704.23673294 -658.13451219 1698.00380117 C-659.17224778 1697.56439199 -659.17224778 1697.56439199 -660.23094773 1697.11610585 C-684.35205019 1686.43716342 -704.27306563 1665.53250157 -714.12206101 1641.10804921 C-719.64801969 1626.76320549 -720.95391224 1612.95433012 -720.88982892 1597.74771577 C-720.8932684 1595.92451316 -720.8980192 1594.10131264 -720.90394989 1592.27811643 C-720.91641019 1587.28568549 -720.91033182 1582.29342636 -720.90111621 1577.3009948 C-720.89438993 1571.86282303 -720.90508079 1566.42468024 -720.91351205 1560.98651469 C-720.92587383 1551.46108849 -720.92709348 1541.93571156 -720.92096162 1532.41028005 C-720.91186758 1518.24541885 -720.91990501 1504.08060319 -720.93125286 1489.91574548 C-720.95181867 1463.88101072 -720.95298087 1437.8462961 -720.94760224 1411.81155548 C-720.94684649 1408.12502504 -720.94611887 1404.4384946 -720.94542027 1400.75196415 C-720.94528117 1400.01968965 -720.94514208 1399.28741514 -720.94499878 1398.5329505 C-720.9420443 1382.29211247 -720.94506143 1366.05127717 -720.94931655 1349.81043963 C-720.94989871 1347.58654945 -720.95046756 1345.36265927 -720.95103219 1343.13876909 C-720.95254719 1337.17700308 -720.9540741 1331.21523709 -720.95562519 1325.25347109 C-720.96637917 1283.64452439 -720.97108659 1242.03558023 -720.96315503 1200.4266327 C-720.96300673 1199.64259707 -720.96285842 1198.85856144 -720.96270562 1198.05076715 C-720.96104667 1189.30827531 -720.95929709 1180.56578349 -720.95751261 1171.82329168 C-720.95735158 1171.03399898 -720.95719056 1170.24470629 -720.95702466 1169.43149563 C-720.9557171 1163.02684332 -720.9557171 1163.02684332 -720.95506347 1159.85563131 C-720.94467219 1109.36977046 -720.95243918 1058.88394446 -720.97606492 1008.39808828 C-720.9820085 995.67632568 -720.98790014 982.95456307 -720.99347425 970.2328003 C-720.99381802 969.44943371 -720.99416179 968.66606712 -720.99451597 967.85896215 C-721.00504606 943.70942064 -721.01063744 919.55988204 -721.01103139 895.41033822 C-721.01104417 894.65198711 -721.01105695 893.89363599 -721.01107012 893.11230454 C-721.01129843 876.46360885 -721.01029216 859.81491341 -721.00816107 843.16621786 C-721.00740633 837.20887857 -721.00672812 831.25153927 -721.00608092 825.29419996 C-721.00591823 823.8122166 -721.00575056 822.33023324 -721.0055779 820.84824988 C-721.0028587 797.25170181 -721.01140247 773.65517492 -721.02543201 750.0586314 C-721.03985095 725.62801026 -721.03937252 701.19742953 -721.02205729 676.76680972 C-721.01248882 662.68658615 -721.01394043 648.60646582 -721.03129198 634.52624912 C-721.04177583 625.11832019 -721.03768891 615.71046995 -721.02181194 606.30254878 C-721.01317489 600.94414187 -721.01076857 595.58593737 -721.02608126 590.22754081 C-721.03990367 585.34447612 -721.0350327 580.4617863 -721.01579607 575.57874319 C-721.01208706 573.83135791 -721.01494228 572.08394181 -721.02550915 570.33658454 C-721.10811886 555.65408748 -719.30811407 541.04263427 -713.38451219 527.44130117 C-712.94510301 526.41033315 -712.94510301 526.41033315 -712.49681687 525.3585375 C-701.76386217 501.2701837 -680.89477943 481.31161357 -656.43993211 471.51625234 C-641.1162681 465.65372597 -626.85138027 464.69611524 -610.62917161 464.76803762 C-608.42269391 464.76672773 -606.21621667 464.76409793 -604.0097419 464.76027012 C-597.9756751 464.75358934 -591.94176926 464.76552467 -585.90772295 464.7806043 C-580.06012096 464.79225926 -574.2125362 464.78971957 -568.36492552 464.78755878 C-556.41161566 464.78362774 -544.45835576 464.79360061 -532.50506043 464.811611 C-520.67683882 464.82938709 -508.84863802 464.84091388 -497.02040315 464.84416944 C-496.28382901 464.84437566 -495.54725488 464.84458188 -494.78836032 464.84479434 C-491.04738187 464.8458094 -487.3064034 464.84671353 -483.5654249 464.84757497 C-457.09641512 464.85386932 -430.62743247 464.87406212 -404.15843797 464.90248281 C-378.45075714 464.9300541 -352.74308375 464.95129612 -327.03539109 464.96400625 C-325.84589652 464.96459811 -325.84589652 464.96459811 -324.63237176 464.96520194 C-316.66847773 464.96915764 -308.70458365 464.97298506 -300.74068951 464.97671852 C-284.51860031 464.98432632 -268.29651158 464.99279007 -252.07442307 465.00177175 C-251.32862503 465.00218362 -250.58282698 465.00259549 -249.81442899 465.00301984 C-200.04611186 465.03060267 -150.27781066 465.07819859 -100.50951219 465.12880117 C-100.51103107 464.34003154 -100.51254995 463.55126192 -100.51411486 462.73859018 C-100.60371733 415.94156104 -100.67230394 369.14454127 -100.7137735 322.34744347 C-100.71877605 316.72264198 -100.72395337 311.09784067 -100.72923875 305.47303945 C-100.73081261 303.7934151 -100.73081261 303.7934151 -100.73241827 302.07985894 C-100.74980151 283.9727849 -100.7813277 265.8657619 -100.81812337 247.75871809 C-100.85559076 229.16541032 -100.87776028 210.57212919 -100.88586617 191.97878522 C-100.89134192 180.51493117 -100.90860758 169.05122142 -100.94117805 157.58741181 C-100.96239758 149.71558682 -100.96869546 141.84383593 -100.9635177 133.97198446 C-100.96096745 129.437109 -100.96474796 124.90248486 -100.98633409 120.36765462 C-101.09201154 96.96992116 -100.27722672 76.42623763 -89.50951219 55.12880117 C-88.97455125 54.07048085 -88.43959031 53.01216054 -87.88841844 51.92176992 C-75.40987633 29.08932957 -53.35186615 11.34623539 -28.43529344 3.83973867 C-18.80984819 1.14136294 -9.96709212 -0.01859178 0 0 Z " fill="#185ABD" transform="translate(735.5095121860504,154.87119883298874)"/>
<path d="M0 0 C9.61553023 -0.07005494 19.23097023 -0.12308914 28.84670162 -0.15543652 C33.31350266 -0.1709754 37.78012686 -0.19199323 42.24682617 -0.22631836 C46.57165279 -0.25933855 50.89631123 -0.27694108 55.22125435 -0.28463173 C56.85676273 -0.29009986 58.49226377 -0.30077287 60.1276989 -0.31719017 C87.97673239 -0.58518218 115.19100036 6.65510662 136 26 C136.48275391 26.43650879 136.96550781 26.87301758 137.46289062 27.32275391 C151.23397845 39.85196892 161.80794135 56.00252747 167 74 C167 75.32 167 76.64 167 78 C552.11 78 937.22 78 1334 78 C1334.08080295 460.88928303 1334.08080295 460.88928303 1334.09632993 607.13001084 C1334.09654868 609.18294995 1334.09676752 611.23588906 1334.09698644 613.28882816 C1334.0970962 614.31819144 1334.09720595 615.34755472 1334.09731903 616.40811083 C1334.10120209 652.77517485 1334.10521585 689.14223886 1334.10945851 725.50930284 C1334.1098623 728.98034059 1334.11026266 732.45137835 1334.11066218 735.92241611 C1334.11679245 789.07108082 1334.12459497 842.21974462 1334.1373291 895.3684082 C1334.1376029 896.51129862 1334.1378767 897.65418903 1334.13815879 898.83171248 C1334.14258352 917.25841414 1334.14715074 935.68511576 1334.15173688 954.11181738 C1334.16494469 1007.18834535 1334.17709827 1060.26487261 1334.18227959 1113.34140205 C1334.18244019 1114.97872874 1334.18244019 1114.97872874 1334.18260404 1116.64913272 C1334.18493561 1140.61173106 1334.1867253 1164.57432941 1334.18800197 1188.53692783 C1334.18852521 1198.17877429 1334.18912645 1207.82062074 1334.18975449 1217.46246719 C1334.18982134 1218.51772311 1334.18988819 1219.57297902 1334.18995707 1220.66021238 C1334.19214968 1254.65672057 1334.20069084 1288.65322352 1334.21256442 1322.64972959 C1334.22449678 1356.89781153 1334.2301977 1391.14588838 1334.22724798 1425.39397245 C1334.22684182 1430.12780129 1334.22650705 1434.86163014 1334.22621536 1439.59545898 C1334.2261556 1440.52341605 1334.22609584 1441.45137312 1334.22603427 1442.4074501 C1334.22527326 1457.09515496 1334.23123932 1471.78284908 1334.24001972 1486.47055102 C1334.24851737 1500.9169253 1334.24987413 1515.36328567 1334.24366363 1529.80966128 C1334.24023832 1538.27653427 1334.24226534 1546.74336307 1334.252434 1555.21023089 C1334.25864611 1560.83994127 1334.2575434 1566.46962018 1334.25060215 1572.09932961 C1334.24687435 1575.2865167 1334.24727149 1578.4736019 1334.25447049 1581.66078546 C1334.32868522 1616.7482273 1329.65376364 1649.05501396 1304 1675.1015625 C1279.12973991 1699.4763354 1251.18976898 1705.65418411 1217.63038871 1705.50963464 C1214.05850795 1705.49878066 1210.48669054 1705.51147515 1206.9148165 1705.52098203 C1200.64526725 1705.53448968 1194.37585736 1705.53327555 1188.10630524 1705.52224785 C1178.72058022 1705.50581386 1169.33496731 1705.51260632 1159.94923961 1705.52377842 C1143.94984663 1705.54214703 1127.95050457 1705.54159372 1111.95110703 1705.53065491 C1095.74276574 1705.51964082 1079.53445796 1705.5173358 1063.32611465 1705.52560425 C1061.7891722 1705.52637928 1061.7891722 1705.52637928 1060.2211804 1705.52716998 C1056.04786862 1705.52930312 1051.87455687 1705.53149795 1047.70124517 1705.53377108 C1008.84998753 1705.5549177 969.99875235 1705.55636796 931.14749146 1705.54518127 C929.99674871 1705.54485009 928.84600596 1705.54451891 927.66039221 1705.54417769 C926.50780523 1705.54384597 925.35521824 1705.54351426 924.16770437 1705.54317249 C889.05278938 1705.5330796 853.93788367 1705.53047426 818.82296753 1705.53526306 C816.4714668 1705.53557298 814.11996607 1705.5358816 811.76846533 1705.53618894 C802.31874595 1705.53743081 792.86902657 1705.53870548 783.4193072 1705.540028 C757.00347112 1705.54369602 730.58763501 1705.54597843 704.17179871 1705.54717255 C702.96888663 1705.54722713 701.76597455 1705.54728171 700.52661059 1705.54733795 C662.19692294 1705.54897505 623.86723852 1705.54446757 585.53755188 1705.53577423 C584.29437293 1705.53549323 583.05119398 1705.53521224 581.77034295 1705.53492273 C561.58195362 1705.53034294 541.39356436 1705.52546509 521.20517511 1705.52056203 C441.13579789 1705.50113671 361.06644742 1705.50203832 280.99707031 1705.52148438 C260.81886294 1705.52636914 240.64065557 1705.53121335 220.46244812 1705.53577423 C219.22000047 1705.53605602 217.97755281 1705.53633782 216.69745523 1705.53662815 C178.40770349 1705.54525294 140.11795398 1705.54890997 101.82820129 1705.54717255 C100.62617267 1705.54711821 99.42414405 1705.54706387 98.18569032 1705.54700789 C71.7991965 1705.54575797 45.41270292 1705.54322341 19.02620934 1705.53953053 C9.58494068 1705.53821397 0.14367202 1705.53696165 -9.29759665 1705.53572769 C-11.64633589 1705.53541814 -13.99507512 1705.53510322 -16.34381436 1705.53478291 C-51.44934423 1705.53000859 -86.55486365 1705.53407421 -121.66039221 1705.54417769 C-122.81113496 1705.54450888 -123.96187771 1705.54484006 -125.14749146 1705.54518127 C-126.29611115 1705.545512 -127.44473085 1705.54584273 -128.62815721 1705.54618348 C-167.36738226 1705.55721593 -206.10658039 1705.55315882 -244.84580159 1705.5320583 C-249.00590592 1705.52984889 -253.16601027 1705.52770207 -257.32611465 1705.52560425 C-258.3470741 1705.52508342 -259.36803355 1705.52456259 -260.41993117 1705.52402598 C-276.58445275 1705.51613718 -292.74894083 1705.52162857 -308.91345939 1705.53268027 C-324.80877619 1705.54326282 -340.7040365 1705.53954456 -356.59934614 1705.52062392 C-365.9170752 1705.50995569 -375.23464932 1705.51016109 -384.55237095 1705.52655031 C-390.7453613 1705.53634569 -396.93823135 1705.53156609 -403.1312072 1705.51508289 C-406.63876322 1705.50614954 -410.14601139 1705.50324102 -413.65355329 1705.51834896 C-434.91896841 1705.59078676 -452.86569204 1703.67406412 -472 1694 C-473.58748047 1693.19755859 -473.58748047 1693.19755859 -475.20703125 1692.37890625 C-498.0394716 1679.90036415 -515.78256578 1657.84235397 -523.2890625 1632.92578125 C-525.48207118 1625.10304375 -527.12576206 1617.53771375 -527.12304783 1609.38958168 C-527.12420167 1608.74783011 -527.12535552 1608.10607854 -527.12654433 1607.44487995 C-527.12918782 1605.29791321 -527.12470758 1603.15102171 -527.12025452 1601.00405884 C-527.12069068 1599.44795539 -527.12156642 1597.89185201 -527.12284368 1596.33574903 C-527.12507973 1592.06230398 -527.1210795 1587.78888399 -527.11606562 1583.51544213 C-527.11174857 1578.90609758 -527.11320844 1574.29675445 -527.1139679 1569.68740845 C-527.11449233 1561.70225311 -527.11135389 1553.71710595 -527.10573006 1545.73195267 C-527.09760422 1534.1867504 -527.09499872 1522.64155208 -527.09374207 1511.09634726 C-527.09155325 1492.36517328 -527.08489779 1473.63400365 -527.07543945 1454.90283203 C-527.06626093 1436.70686871 -527.05918224 1418.51090657 -527.05493164 1400.31494141 C-527.05466892 1399.19340741 -527.05440619 1398.07187341 -527.05413551 1396.91635354 C-527.05283047 1391.28996656 -527.05156677 1385.66357957 -527.05032361 1380.03719258 C-527.03995631 1333.35812537 -527.02234262 1286.67906291 -527 1240 C-525.88596814 1239.99902319 -524.77193627 1239.99804638 -523.62414587 1239.99703997 C-474.51379435 1239.95378291 -425.40344825 1239.90681987 -376.29312134 1239.84101868 C-375.1773938 1239.83952533 -375.1773938 1239.83952533 -374.0391263 1239.83800181 C-357.87291447 1239.81634193 -341.70670361 1239.79401914 -325.54049363 1239.77101372 C-317.61228238 1239.75973546 -309.68407094 1239.74860366 -301.75585938 1239.73754883 C-300.57244764 1239.73589498 -300.57244764 1239.73589498 -299.36512859 1239.73420772 C-273.80553319 1239.69855614 -248.2459391 1239.67256997 -222.68632778 1239.65161031 C-196.41467069 1239.6300156 -170.14304292 1239.5986414 -143.87141275 1239.55500887 C-140.158463 1239.54884687 -136.44551307 1239.54279635 -132.73256302 1239.53681374 C-132.00182034 1239.53563285 -131.27107765 1239.53445197 -130.51819125 1239.53323531 C-118.76786503 1239.51453321 -107.01755294 1239.50610249 -95.26721366 1239.50153876 C-83.44651384 1239.49672756 -71.62587115 1239.48079331 -59.80519973 1239.45433434 C-53.40359873 1239.44032869 -47.00208686 1239.43114511 -40.60046959 1239.43499184 C-34.73505361 1239.43840944 -28.8698278 1239.42799443 -23.00445075 1239.40676448 C-20.88712934 1239.40150907 -18.7697881 1239.40124851 -16.65246694 1239.40660437 C-5.33752191 1239.4323015 5.0283222 1239.04876476 16 1236 C17.09981294 1235.71209903 17.09981294 1235.71209903 18.22184432 1235.41838187 C43.13119994 1228.54788811 64.62915196 1212.07034802 78 1190 C88.81278555 1170.50040999 92.31647705 1151.04661491 92.25168228 1128.99439335 C92.25377166 1127.18766175 92.25673646 1125.38093099 92.26049101 1123.57420209 C92.26826018 1118.6182327 92.26362914 1113.66234151 92.25693511 1108.70637344 C92.25185429 1103.31123661 92.25838449 1097.91611162 92.26342177 1092.52097648 C92.27064238 1083.06812223 92.2704277 1073.61529083 92.26532745 1064.16243553 C92.25776379 1050.1056684 92.26162931 1036.04892055 92.26774407 1021.99215356 C92.27766772 998.34213844 92.27803379 974.69213234 92.27259064 951.04211617 C92.27234225 949.96237874 92.27234225 949.96237874 92.27208885 948.86082844 C92.27192299 948.1398476 92.27175713 947.41886676 92.27158624 946.67603801 C92.26653864 924.70538491 92.26523767 902.73473552 92.26763153 880.76408195 C92.26778649 879.29246802 92.2679408 877.82085408 92.26809447 876.34924014 C92.26871541 870.43532908 92.26935275 864.52141802 92.270014 858.60750697 C92.27184797 842.07587991 92.2729892 825.54425284 92.27358627 809.01262569 C92.27362721 807.88343111 92.27362721 807.88343111 92.27366897 806.73142451 C92.27448746 782.7460186 92.27223411 758.76061398 92.26788712 734.77520847 C92.26774662 733.99732846 92.26760612 733.21944844 92.26746136 732.41799631 C92.26517151 719.78597377 92.26273256 707.15395127 92.26028102 694.52192876 C92.25056894 644.42534151 92.2510188 594.32876494 92.26074219 544.23217773 C92.2631846 531.60769686 92.26560672 518.98321599 92.26788712 506.35873508 C92.26802801 505.58138161 92.26816891 504.80402814 92.26831407 504.00311851 C92.27262703 480.04346798 92.27445488 456.08381834 92.27358627 432.12416744 C92.2735591 431.37191135 92.27353194 430.61965526 92.27350394 429.84460353 C92.27287896 413.3306852 92.27161163 396.81676697 92.26976527 380.30284874 C92.26910699 374.39392985 92.26848083 368.48501095 92.26786385 362.57609206 C92.26770907 361.10612844 92.26755161 359.63616482 92.26739145 358.16620121 C92.26500507 336.2025379 92.2670356 314.23887877 92.27208885 292.27521598 C92.27225444 291.55547383 92.27242003 290.83573168 92.27259064 290.09417915 C92.272756 289.37576676 92.27292137 288.65735437 92.27309174 287.9171719 C92.2786102 263.67762945 92.27657116 239.43809859 92.26602915 215.19855756 C92.26015214 201.22417682 92.25977965 187.24982157 92.2673215 173.27544148 C92.27180287 163.94310137 92.26902124 154.61078172 92.26031196 145.27844464 C92.25555076 139.95993603 92.25393536 134.64147809 92.26112393 129.32297105 C92.26760193 124.48081664 92.2648146 119.63875769 92.2547626 114.79661018 C92.25275491 113.05950802 92.25406296 111.32239788 92.25917448 109.58530207 C92.34455084 78.34421016 83.35143365 52.23402127 61.75 29.3125 C44.43662252 12.81351484 23.46244274 4.16074358 0 1 C0 0.67 0 0.34 0 0 Z " fill="#185ABD" transform="translate(1162,620)"/>
<path d="M0 0 C9.61553023 -0.07005494 19.23097023 -0.12308914 28.84670162 -0.15543652 C33.31350266 -0.1709754 37.78012686 -0.19199323 42.24682617 -0.22631836 C46.57165279 -0.25933855 50.89631123 -0.27694108 55.22125435 -0.28463173 C56.85676273 -0.29009986 58.49226377 -0.30077287 60.1276989 -0.31719017 C87.97673239 -0.58518218 115.19100036 6.65510662 136 26 C136.48275391 26.43650879 136.96550781 26.87301758 137.46289062 27.32275391 C156.75369582 44.87391974 167.78400028 68.22126748 171 94 C171.08743915 96.58443213 171.13363024 99.14051736 171.1241985 101.72384876 C171.12547659 102.47509682 171.12675468 103.22634488 171.1280715 104.00035803 C171.13113542 106.51902826 171.12707162 109.03763583 171.12304783 111.55630398 C171.12378748 113.38823352 171.12496609 115.22016292 171.12654402 117.05209193 C171.1296169 122.10434433 171.12643515 127.15657666 171.12226575 132.20882756 C171.11884096 137.68569721 171.12120394 143.16256477 171.12284851 148.63943481 C171.12492962 158.25449025 171.12327345 167.8695395 171.11921513 177.48459423 C171.11482787 187.91311289 171.11262781 198.3416288 171.11307228 208.7701484 C171.11309925 209.43377042 171.11312623 210.09739245 171.11315403 210.78112423 C171.11330161 214.16534463 171.11348464 217.54956502 171.11368043 220.93378542 C171.11501411 245.20289279 171.11163329 269.47199757 171.10557556 293.74110413 C171.09740207 326.55628564 171.09547314 359.37146192 171.09460449 392.18664551 C171.08934924 471.10359756 171.0753882 550.02054883 171.0625 628.9375 C171.041875 805.178125 171.02125 981.41875 171 1163 C554.46 1163 937.92 1163 1333 1163 C1333.66 1454.06 1333.66 1454.06 1304 1675.1015625 C1279.12973991 1699.4763354 1251.18976898 1705.65418411 1217.63038871 1705.50963464 C1214.05850795 1705.49878066 1210.48669054 1705.51147515 1206.9148165 1705.52098203 C1200.64526725 1705.53448968 1194.37585736 1705.53327555 1188.10630524 1705.52224785 C1178.72058022 1705.50581386 1169.33496731 1705.51260632 1159.94923961 1705.52377842 C1143.94984663 1705.54214703 1127.95050457 1705.54159372 1111.95110703 1705.53065491 C1095.74276574 1705.51964082 1079.53445796 1705.5173358 1063.32611465 1705.52560425 C1061.7891722 1705.52637928 1061.7891722 1705.52637928 1060.2211804 1705.52716998 C1056.04786862 1705.52930312 1051.87455687 1705.53149795 1047.70124517 1705.53377108 C1008.84998753 1705.5549177 969.99875235 1705.55636796 931.14749146 1705.54518127 C929.99674871 1705.54485009 928.84600596 1705.54451891 927.66039221 1705.54417769 C926.50780523 1705.54384597 925.35521824 1705.54351426 924.16770437 1705.54317249 C889.05278938 1705.5330796 853.93788367 1705.53047426 818.82296753 1705.53526306 C816.4714668 1705.53557298 814.11996607 1705.5358816 811.76846533 1705.53618894 C802.31874595 1705.53743081 792.86902657 1705.53870548 783.4193072 1705.540028 C757.00347112 1705.54369602 730.58763501 1705.54597843 704.17179871 1705.54717255 C702.96888663 1705.54722713 701.76597455 1705.54728171 700.52661059 1705.54733795 C662.19692294 1705.54897505 623.86723852 1705.54446757 585.53755188 1705.53577423 C584.29437293 1705.53549323 583.05119398 1705.53521224 581.77034295 1705.53492273 C561.58195362 1705.53034294 541.39356436 1705.52546509 521.20517511 1705.52056203 C441.13579789 1705.50113671 361.06644742 1705.50203832 280.99707031 1705.52148438 C260.81886294 1705.52636914 240.64065557 1705.53121335 220.46244812 1705.53577423 C219.22000047 1705.53605602 217.97755281 1705.53633782 216.69745523 1705.53662815 C178.40770349 1705.54525294 140.11795398 1705.54890997 101.82820129 1705.54717255 C100.62617267 1705.54711821 99.42414405 1705.54706387 98.18569032 1705.54700789 C71.7991965 1705.54575797 45.41270292 1705.54322341 19.02620934 1705.53953053 C9.58494068 1705.53821397 0.14367202 1705.53696165 -9.29759665 1705.53572769 C-11.64633589 1705.53541814 -13.99507512 1705.53510322 -16.34381436 1705.53478291 C-51.44934423 1705.53000859 -86.55486365 1705.53407421 -121.66039221 1705.54417769 C-122.81113496 1705.54450888 -123.96187771 1705.54484006 -125.14749146 1705.54518127 C-126.29611115 1705.545512 -127.44473085 1705.54584273 -128.62815721 1705.54618348 C-167.36738226 1705.55721593 -206.10658039 1705.55315882 -244.84580159 1705.5320583 C-249.00590592 1705.52984889 -253.16601027 1705.52770207 -257.32611465 1705.52560425 C-258.3470741 1705.52508342 -259.36803355 1705.52456259 -260.41993117 1705.52402598 C-276.58445275 1705.51613718 -292.74894083 1705.52162857 -308.91345939 1705.53268027 C-324.80877619 1705.54326282 -340.7040365 1705.53954456 -356.59934614 1705.52062392 C-365.9170752 1705.50995569 -375.23464932 1705.51016109 -384.55237095 1705.52655031 C-390.7453613 1705.53634569 -396.93823135 1705.53156609 -403.1312072 1705.51508289 C-406.63876322 1705.50614954 -410.14601139 1705.50324102 -413.65355329 1705.51834896 C-434.91896841 1705.59078676 -452.86569204 1703.67406412 -472 1694 C-473.58748047 1693.19755859 -473.58748047 1693.19755859 -475.20703125 1692.37890625 C-498.0394716 1679.90036415 -515.78256578 1657.84235397 -523.2890625 1632.92578125 C-525.48207118 1625.10304375 -527.12576206 1617.53771375 -527.12304783 1609.38958168 C-527.12420167 1608.74783011 -527.12535552 1608.10607854 -527.12654433 1607.44487995 C-527.12918782 1605.29791321 -527.12470758 1603.15102171 -527.12025452 1601.00405884 C-527.12069068 1599.44795539 -527.12156642 1597.89185201 -527.12284368 1596.33574903 C-527.12507973 1592.06230398 -527.1210795 1587.78888399 -527.11606562 1583.51544213 C-527.11174857 1578.90609758 -527.11320844 1574.29675445 -527.1139679 1569.68740845 C-527.11449233 1561.70225311 -527.11135389 1553.71710595 -527.10573006 1545.73195267 C-527.09760422 1534.1867504 -527.09499872 1522.64155208 -527.09374207 1511.09634726 C-527.09155325 1492.36517328 -527.08489779 1473.63400365 -527.07543945 1454.90283203 C-527.06626093 1436.70686871 -527.05918224 1418.51090657 -527.05493164 1400.31494141 C-527.05466892 1399.19340741 -527.05440619 1398.07187341 -527.05413551 1396.91635354 C-527.05283047 1391.28996656 -527.05156677 1385.66357957 -527.05032361 1380.03719258 C-527.03995631 1333.35812537 -527.02234262 1286.67906291 -527 1240 C-525.88596814 1239.99902319 -524.77193627 1239.99804638 -523.62414587 1239.99703997 C-474.51379435 1239.95378291 -425.40344825 1239.90681987 -376.29312134 1239.84101868 C-375.1773938 1239.83952533 -375.1773938 1239.83952533 -374.0391263 1239.83800181 C-357.87291447 1239.81634193 -341.70670361 1239.79401914 -325.54049363 1239.77101372 C-317.61228238 1239.75973546 -309.68407094 1239.74860366 -301.75585938 1239.73754883 C-300.57244764 1239.73589498 -300.57244764 1239.73589498 -299.36512859 1239.73420772 C-273.80553319 1239.69855614 -248.2459391 1239.67256997 -222.68632778 1239.65161031 C-196.41467069 1239.6300156 -170.14304292 1239.5986414 -143.87141275 1239.55500887 C-140.158463 1239.54884687 -136.44551307 1239.54279635 -132.73256302 1239.53681374 C-132.00182034 1239.53563285 -131.27107765 1239.53445197 -130.51819125 1239.53323531 C-118.76786503 1239.51453321 -107.01755294 1239.50610249 -95.26721366 1239.50153876 C-83.44651384 1239.49672756 -71.62587115 1239.48079331 -59.80519973 1239.45433434 C-53.40359873 1239.44032869 -47.00208686 1239.43114511 -40.60046959 1239.43499184 C-34.73505361 1239.43840944 -28.8698278 1239.42799443 -23.00445075 1239.40676448 C-20.88712934 1239.40150907 -18.7697881 1239.40124851 -16.65246694 1239.40660437 C-5.33752191 1239.4323015 5.0283222 1239.04876476 16 1236 C17.09981294 1235.71209903 17.09981294 1235.71209903 18.22184432 1235.41838187 C43.13119994 1228.54788811 64.62915196 1212.07034802 78 1190 C88.81278555 1170.50040999 92.31647705 1151.04661491 92.25168228 1128.99439335 C92.25377166 1127.18766175 92.25673646 1125.38093099 92.26049101 1123.57420209 C92.26826018 1118.6182327 92.26362914 1113.66234151 92.25693511 1108.70637344 C92.25185429 1103.31123661 92.25838449 1097.91611162 92.26342177 1092.52097648 C92.27064238 1083.06812223 92.2704277 1073.61529083 92.26532745 1064.16243553 C92.25776379 1050.1056684 92.26162931 1036.04892055 92.26774407 1021.99215356 C92.27766772 998.34213844 92.27803379 974.69213234 92.27259064 951.04211617 C92.27234225 949.96237874 92.27234225 949.96237874 92.27208885 948.86082844 C92.27192299 948.1398476 92.27175713 947.41886676 92.27158624 946.67603801 C92.26653864 924.70538491 92.26523767 902.73473552 92.26763153 880.76408195 C92.26778649 879.29246802 92.2679408 877.82085408 92.26809447 876.34924014 C92.26871541 870.43532908 92.26935275 864.52141802 92.270014 858.60750697 C92.27184797 842.07587991 92.2729892 825.54425284 92.27358627 809.01262569 C92.27362721 807.88343111 92.27362721 807.88343111 92.27366897 806.73142451 C92.27448746 782.7460186 92.27223411 758.76061398 92.26788712 734.77520847 C92.26774662 733.99732846 92.26760612 733.21944844 92.26746136 732.41799631 C92.26517151 719.78597377 92.26273256 707.15395127 92.26028102 694.52192876 C92.25056894 644.42534151 92.2510188 594.32876494 92.26074219 544.23217773 C92.2631846 531.60769686 92.26560672 518.98321599 92.26788712 506.35873508 C92.26802801 505.58138161 92.26816891 504.80402814 92.26831407 504.00311851 C92.27262703 480.04346798 92.27445488 456.08381834 92.27358627 432.12416744 C92.2735591 431.37191135 92.27353194 430.61965526 92.27350394 429.84460353 C92.27287896 413.3306852 92.27161163 396.81676697 92.26976527 380.30284874 C92.26910699 374.39392985 92.26848083 368.48501095 92.26786385 362.57609206 C92.26770907 361.10612844 92.26755161 359.63616482 92.26739145 358.16620121 C92.26500507 336.2025379 92.2670356 314.23887877 92.27208885 292.27521598 C92.27225444 291.55547383 92.27242003 290.83573168 92.27259064 290.09417915 C92.272756 289.37576676 92.27292137 288.65735437 92.27309174 287.9171719 C92.2786102 263.67762945 92.27657116 239.43809859 92.26602915 215.19855756 C92.26015214 201.22417682 92.25977965 187.24982157 92.2673215 173.27544148 C92.27180287 163.94310137 92.26902124 154.61078172 92.26031196 145.27844464 C92.25555076 139.95993603 92.25393536 134.64147809 92.26112393 129.32297105 C92.26760193 124.48081664 92.2648146 119.63875769 92.2547626 114.79661018 C92.25275491 113.05950802 92.25406296 111.32239788 92.25917448 109.58530207 C92.34455084 78.34421016 83.35143365 52.23402127 61.75 29.3125 C44.43662252 12.81351484 23.46244274 4.16074358 0 1 C0 0.67 0 0.34 0 0 Z " fill="#0F3E90" transform="translate(1162,620)"/>
<path d="M0 0 C1.17345912 -0.00177501 2.34691824 -0.00355002 3.55593672 -0.00537882 C6.82465284 -0.00930516 10.09333323 -0.00874396 13.36204969 -0.00632112 C16.92708232 -0.00478009 20.49210882 -0.00903483 24.0571394 -0.01254788 C30.33328951 -0.01792553 36.60943214 -0.01956443 42.88558438 -0.01879714 C52.28141019 -0.01766273 61.67722726 -0.02223956 71.0730511 -0.02792798 C87.0850055 -0.03744524 103.09695815 -0.04214802 119.10891509 -0.04423732 C135.34163838 -0.04636473 151.57435898 -0.050622 167.80708098 -0.05748004 C169.34350698 -0.05812596 169.34350698 -0.05812596 170.91097189 -0.05878493 C175.08256619 -0.06054325 179.2541605 -0.06231289 183.42575479 -0.06409795 C234.01945115 -0.08570522 284.61314803 -0.09657786 335.20684795 -0.10557419 C351.61202642 -0.10850759 368.01720475 -0.11187741 384.42238307 -0.1155414 C385.5795125 -0.11579969 386.73664192 -0.11605798 387.92883588 -0.1163241 C392.61006476 -0.11737031 397.29129363 -0.11841873 401.97252251 -0.11946992 C482.04753134 -0.13743528 562.12254037 -0.15281473 642.19755093 -0.16022895 C648.48827825 -0.16081293 654.77900557 -0.16141019 661.06973289 -0.16200657 C662.94156667 -0.16218375 662.94156667 -0.16218375 664.85121527 -0.16236451 C677.49422989 -0.16356191 690.1372445 -0.16477066 702.78025911 -0.16599704 C705.31523396 -0.16624227 707.85020882 -0.16648613 710.38518367 -0.16672861 C791.80129799 -0.17451853 873.21739791 -0.19690196 954.63350593 -0.22940504 C1013.12715218 -0.2527491 1071.62079557 -0.27430169 1130.1144464 -0.28141135 C1131.31728046 -0.28155837 1132.52011451 -0.28170539 1133.75939808 -0.28185687 C1160.16416489 -0.28504163 1186.56893168 -0.28709256 1212.97369866 -0.28808442 C1223.59786347 -0.28849916 1234.22202827 -0.28905406 1244.84619308 -0.28964633 C1246.00894901 -0.289707 1247.17170494 -0.28976766 1248.3696959 -0.28983017 C1285.83163194 -0.29184654 1323.29355097 -0.30608779 1360.75548107 -0.32659133 C1398.48829479 -0.3471699 1436.22108883 -0.35506762 1473.9539076 -0.34551357 C1479.16829901 -0.34419511 1484.38269044 -0.34301707 1489.5970819 -0.34192294 C1490.61924526 -0.34170309 1491.64140863 -0.34148324 1492.69454664 -0.34125673 C1508.87838812 -0.33814265 1525.06219198 -0.34846798 1541.24602474 -0.36439849 C1557.16068121 -0.37978521 1573.07528567 -0.38090017 1588.98994396 -0.36685025 C1598.31929154 -0.35904199 1607.64848017 -0.36214788 1616.97781186 -0.38148742 C1623.17860165 -0.39324506 1629.37927563 -0.39041527 1635.5800592 -0.37587277 C1639.09208924 -0.36804028 1642.60380892 -0.36624416 1646.11581716 -0.38249181 C1678.12614866 -0.50175344 1706.18106531 6.04151763 1729.59595656 29.13661367 C1748.51846168 48.44984898 1760.43026778 73.72868474 1760.49048781 543.12880117 C1375.38048781 543.12880117 990.27048781 543.12880117 593.49048781 543.12880117 C591.84048781 538.17880117 590.19048781 533.22880117 588.49048781 528.12880117 C577.01047661 502.29877596 556.52326111 482.87452815 530.38453078 472.27479726 C513.18880524 465.91887779 496.01090818 465.8338103 477.91471267 465.85032827 C475.41537344 465.84532058 472.91603583 465.8394434 470.41670048 465.83277553 C464.99920177 465.8203022 459.58174976 465.81392134 454.16423774 465.81301481 C446.10873123 465.81163329 438.05327063 465.79881689 429.99777958 465.78372706 C416.44423307 465.75865852 402.89069046 465.74275992 389.33712554 465.73214513 C375.9235606 465.72160981 362.51001044 465.70696344 349.09645629 465.68686467 C348.26145154 465.68561581 347.42644678 465.68436694 346.56613886 465.68308023 C342.3253171 465.6767162 338.08449547 465.67027908 333.84367387 465.66381384 C303.8307706 465.61818975 273.81786253 465.58172559 243.80494094 465.55067617 C214.6535666 465.52049701 185.50220201 465.48615142 156.35083938 465.44618398 C155.45176503 465.44495298 154.55269068 465.44372197 153.62637165 465.44245367 C144.59723607 465.43008647 135.5681006 465.41763478 126.53896522 465.40512118 C108.14669794 465.37963303 89.75442991 465.35470876 71.3621614 465.33012563 C70.51657364 465.32899472 69.67098588 465.32786381 68.79977424 465.32669863 C12.36335675 465.25128386 -44.07307672 465.18905368 -100.50951219 465.12880117 C-100.60116034 417.53503578 -100.6715979 369.94127977 -100.7137735 322.34744347 C-100.71877605 316.72264198 -100.72395337 311.09784067 -100.72923875 305.47303945 C-100.73028799 304.35328988 -100.73133723 303.23354032 -100.73241827 302.07985894 C-100.74980151 283.9727849 -100.7813277 265.8657619 -100.81812337 247.75871809 C-100.85559076 229.16541032 -100.87776028 210.57212919 -100.88586617 191.97878522 C-100.89134192 180.51493117 -100.90860758 169.05122142 -100.94117805 157.58741181 C-100.96239758 149.71558682 -100.96869546 141.84383593 -100.9635177 133.97198446 C-100.96096745 129.437109 -100.96474796 124.90248486 -100.98633409 120.36765462 C-101.09201154 96.96992116 -100.27722672 76.42623763 -89.50951219 55.12880117 C-88.97455125 54.07048085 -88.43959031 53.01216054 -87.88841844 51.92176992 C-75.40987633 29.08932957 -53.35186615 11.34623539 -28.43529344 3.83973867 C-18.80984819 1.14136294 -9.96709212 -0.01859178 0 0 Z " fill="#40A4ED" transform="translate(735.5095121860504,154.87119883298874)"/>
<path d="M0 0 C384.78 0 769.56 0 1166 0 C1166 178.86 1166 357.72 1166 542 C782.21 542 398.42 542 3 542 C2.67 368.42 2.34 194.84 2 16 C1.34 12.7 0.68 9.4 0 6 C0 4.02 0 2.04 0 0 Z " fill="#2A7CD3" transform="translate(1330,698)"/>
<path d="M0 0 C45.87 0 91.74 0 139 0 C141.25000296 6.75000889 141.25000296 6.75000889 141.92807209 10.13666248 C142.0845089 10.90832001 142.24094571 11.67997753 142.40212303 12.47501862 C142.56692962 13.30784454 142.73173621 14.14067045 142.90153694 14.99873352 C143.17344989 16.34867883 143.17344989 16.34867883 143.45085603 17.72589576 C144.05911399 20.75054436 144.66187654 23.77626174 145.26467896 26.80200195 C145.70330915 28.98911348 146.14227349 31.17615801 146.5815438 33.36314106 C147.78906879 39.38014279 148.99177161 45.39809982 150.19368815 51.416224 C151.35706428 57.2375221 152.52403829 63.05809855 153.69088769 68.87870118 C156.37215891 82.25456459 159.04821872 95.63146738 161.72267713 109.00869441 C163.78755436 119.33674451 165.85381173 129.66451762 167.92104721 139.99209595 C168.21793384 141.47532432 168.51482002 142.95855279 168.81170573 144.44178134 C169.25907024 146.67678939 169.70643529 148.91179734 170.15380334 151.14680468 C174.31344769 171.92816576 178.47151656 192.70984158 182.62631416 213.49217224 C182.78296532 214.27574077 182.93961647 215.0593093 183.10101464 215.86662234 C183.8949995 219.83815826 184.68896899 223.80969726 185.48293234 227.78123748 C185.71946273 228.96440268 185.71946273 228.96440268 185.96077151 230.17147021 C186.27965239 231.7665679 186.59853254 233.36166573 186.91741197 234.9567637 C191.88077646 259.7843039 196.84925352 284.61081612 201.82177734 309.43652344 C207.40691514 337.32080172 212.98821957 365.20584329 218.56384742 393.0920248 C219.15808168 396.06398683 219.75232895 399.03594625 220.34658432 402.00790405 C220.49290527 402.73969027 220.63922622 403.47147648 220.78998114 404.22543804 C223.00093067 415.28251968 225.21488877 426.33899621 227.4303627 437.39517212 C229.94905738 449.96457581 232.46373559 462.53477527 234.97302426 475.10606027 C236.25408716 481.52348775 237.5371403 487.94050542 238.82512283 494.35654831 C240.00316576 500.22518286 241.17591794 506.09484841 242.34438775 511.96539629 C242.76895673 514.09357306 243.19549163 516.22135874 243.62414612 518.34871638 C244.20479257 521.23187025 244.77836743 524.11634282 245.35014534 527.00126648 C245.51963426 527.8340924 245.68912318 528.66691831 245.86374813 529.52498138 C246.69366289 533.75407023 247.18341208 537.6642827 247 542 C247.66 542 248.32 542 249 542 C249.11214844 540.85273437 249.22429687 539.70546875 249.33984375 538.5234375 C249.90754297 534.01936127 251.12709993 529.91948457 252.5625 525.625 C253.10540333 523.95613096 253.64699507 522.28683486 254.1875 520.6171875 C254.62449219 519.27285645 254.62449219 519.27285645 255.0703125 517.90136719 C256.78992826 512.53479322 258.41836709 507.14007196 260.0625 501.75 C262.16826523 494.86563454 264.29906466 488.0007704 266.625 481.1875 C268.48909712 475.68749069 270.12151275 470.15225646 271.6875 464.5625 C274.31509254 455.19735525 277.15869616 445.90730138 280.0625 436.625 C280.27014984 435.95953156 280.47779968 435.29406311 280.69174194 434.60842896 C282.93733327 427.41869734 285.23719725 420.25188332 287.640625 413.11328125 C289.47868724 407.63022387 291.16269554 402.13930344 292.6875 396.5625 C295.30932973 387.19589525 298.15876366 377.90708561 301.0625 368.625 C301.27014984 367.95953156 301.47779968 367.29406311 301.69174194 366.60842896 C303.93733327 359.41869734 306.23719725 352.25188332 308.640625 345.11328125 C310.47868724 339.63022387 312.16269554 334.13930344 313.6875 328.5625 C316.30932973 319.19589525 319.15876366 309.90708561 322.0625 300.625 C322.27014984 299.95953156 322.47779968 299.29406311 322.69174194 298.60842896 C324.93733327 291.41869734 327.23719725 284.25188332 329.640625 277.11328125 C331.47868724 271.63022387 333.16269554 266.13930344 334.6875 260.5625 C337.30932973 251.19589525 340.15876366 241.90708561 343.0625 232.625 C343.27014984 231.95953156 343.47779968 231.29406311 343.69174194 230.60842896 C345.93733327 223.41869734 348.23719725 216.25188332 350.640625 209.11328125 C352.47868724 203.63022387 354.16269554 198.13930344 355.6875 192.5625 C358.30932973 183.19589525 361.15876366 173.90708561 364.0625 164.625 C364.27014984 163.95953156 364.47779968 163.29406311 364.69174194 162.60842896 C366.93733327 155.41869734 369.23719725 148.25188332 371.640625 141.11328125 C373.47868724 135.63022387 375.16269554 130.13930344 376.6875 124.5625 C379.30932973 115.19589525 382.15876366 105.90708561 385.0625 96.625 C385.37397476 95.62679733 385.37397476 95.62679733 385.69174194 94.60842896 C387.93610468 87.42263093 390.23458116 80.25968786 392.63671875 73.125 C394.498053 67.57253299 396.1922081 62.01959163 397.75 56.375 C401.61371946 42.85198188 405.83139664 29.43216637 410 16 C448.61 16 487.22 16 527 16 C529.9186025 24.75580751 532.74353481 33.29704472 535.0625 42.1875 C536.81778137 48.77538809 538.69125423 55.24826212 540.9375 61.6875 C542.76358562 67.38059047 544.24217078 73.17127115 545.7890625 78.9453125 C547.06678551 83.68192206 548.38324153 88.36529238 550 93 C552.28473776 99.54958157 553.99510702 106.24906285 555.7890625 112.9453125 C557.06678551 117.68192206 558.38324153 122.36529238 560 127 C562.28473776 133.54958157 563.99510702 140.24906285 565.7890625 146.9453125 C567.06678551 151.68192206 568.38324153 156.36529238 570 161 C572.28473776 167.54958157 573.99510702 174.24906285 575.7890625 180.9453125 C577.06678551 185.68192206 578.38324153 190.36529238 580 195 C582.28473776 201.54958157 583.99510702 208.24906285 585.7890625 214.9453125 C587.06678551 219.68192206 588.38324153 224.36529238 590 229 C592.28473776 235.54958157 593.99510702 242.24906285 595.7890625 248.9453125 C597.06678551 253.68192206 598.38324153 258.36529238 600 263 C602.28473776 269.54958157 603.99510702 276.24906285 605.7890625 282.9453125 C607.06678551 287.68192206 608.38324153 292.36529238 610 297 C612.28473776 303.54958157 613.99510702 310.24906285 615.7890625 316.9453125 C617.06678551 321.68192206 618.38324153 326.36529238 620 331 C622.28473776 337.54958157 623.99510702 344.24906285 625.7890625 350.9453125 C627.06678551 355.68192206 628.38324153 360.36529238 630 365 C632.28473776 371.54958157 633.99510702 378.24906285 635.7890625 384.9453125 C637.06678551 389.68192206 638.38324153 394.36529238 640 399 C642.28473776 405.54958157 643.99510702 412.24906285 645.7890625 418.9453125 C647.06678551 423.68192206 648.38324153 428.36529238 650 433 C652.28473776 439.54958157 653.99510702 446.24906285 655.7890625 452.9453125 C657.06678551 457.68192206 658.38324153 462.36529238 660 467 C662.28473776 473.54958157 663.99510702 480.24906285 665.7890625 486.9453125 C667.31543683 492.60369006 669.00181708 498.14686048 670.9375 503.6796875 C672.75471184 509.3584745 674.22909019 515.1377245 675.71875 520.91015625 C675.9559375 521.80863281 676.193125 522.70710938 676.4375 523.6328125 C676.64246094 524.42574707 676.84742188 525.21868164 677.05859375 526.03564453 C677.94236983 528.81853071 678.96746174 531.4782963 680.05883789 534.18527222 C680.60297081 535.5373367 680.60297081 535.5373367 681.15809631 536.91671562 C681.43592453 537.60419947 681.71375275 538.29168331 682 539 C682.22602903 537.86909539 682.45205807 536.73819079 682.68493646 535.57301635 C692.64243212 485.75221294 702.60040236 435.93150442 712.56080627 386.11128235 C712.71151013 385.35748693 712.86221399 384.60369152 713.01748464 383.82705382 C716.29238253 367.44657906 719.56736598 351.06612141 722.84243759 334.68568138 C724.44844111 326.65316903 726.05442572 318.62065289 727.66040039 310.58813477 C727.9001265 309.38911192 727.9001265 309.38911192 728.14469557 308.16586639 C733.3284477 282.23857716 738.51095006 256.31103832 743.69280706 230.38337026 C749.01612085 203.74795066 754.34069003 177.11278233 759.66684775 150.47793126 C760.41846037 146.71929181 761.17005859 142.96064947 761.92164803 139.20200539 C762.14354254 138.09233053 762.14354254 138.09233053 762.36991978 136.960238 C764.75486576 125.03314107 767.13848112 113.10577859 769.52160374 101.17831722 C771.91521937 89.1984856 774.31022524 77.21893259 776.70666628 65.23966583 C778.00598488 58.74446376 779.30462507 52.24912735 780.60162544 45.75346184 C781.78738854 39.81496811 782.97490052 33.87682698 784.1638465 27.93896971 C784.5952222 25.78294158 785.02593771 23.62678124 785.45595055 21.47048088 C786.03750202 18.55477674 786.62138711 15.63954973 787.20589352 12.72443676 C787.37493147 11.87399299 787.54396941 11.02354922 787.71812972 10.14733443 C788.3453424 7.02938574 788.99313938 4.02058187 790 1 C833.56 1 877.12 1 922 1 C919.74999803 15.62501282 919.74999803 15.62501282 918.77812523 20.48542136 C918.55600745 21.60352079 918.33388967 22.72162023 918.10504106 23.87360147 C917.74756011 25.65047096 917.74756011 25.65047096 917.38285732 27.46323681 C917.12136026 28.77385972 916.86011556 30.084533 916.59909704 31.3952513 C915.88560716 34.97430366 915.16856685 38.55263651 914.45090949 42.13085521 C913.66909982 46.03225762 912.89065111 49.93433083 912.11176306 53.83631736 C910.74773287 60.66728089 909.38156764 67.49781468 908.01398468 74.32806778 C905.98043724 84.48444327 903.95019494 94.64147749 901.92059474 104.79864242 C898.29593172 122.93774413 894.66797268 141.0761854 891.03860655 159.2143466 C887.8638397 175.08063443 884.69014525 190.9471363 881.517519 206.81385231 C881.30707689 207.866292 881.09663478 208.91873169 880.87981564 210.00306349 C880.02558857 214.27513285 879.17136557 218.54720303 878.31714929 222.81927456 C870.30625184 262.88293636 862.29199108 302.94592472 854.27622358 343.0086124 C847.15031451 378.62391 840.02739456 414.23980419 832.90698242 449.85620117 C824.90881659 489.86307998 816.90879388 529.86958673 808.90575701 569.87549144 C808.05338941 574.13636726 807.20102636 578.39724399 806.34866524 582.65812111 C806.13878679 583.70727612 805.92890834 584.75643114 805.71266994 585.83737873 C802.53872645 601.70367896 799.36621026 617.57026415 796.19437981 633.43698692 C792.59075205 651.46368385 788.98507812 669.48997012 785.37666672 687.51571014 C783.35544018 697.61300509 781.33581675 707.71061761 779.31845919 717.80868629 C777.97313805 724.54198701 776.6257422 731.27487034 775.27661182 738.00740885 C774.50650175 741.85077978 773.73732961 745.69433219 772.97065901 749.53839084 C772.14730194 753.66655672 771.31954749 757.79382796 770.49130154 761.92101574 C770.13030884 763.73651448 770.13030884 763.73651448 769.76202336 765.58868995 C769.5424091 766.67925069 769.32279484 767.76981142 769.09652561 768.89341944 C768.90745663 769.83856106 768.71838765 770.78370268 768.52358931 771.75748495 C768 774 768 774 767 776 C721.13 776 675.26 776 628 776 C623.58431092 764.22482911 619.77787498 752.41539112 616.36962891 740.3190918 C613.68255748 730.80556726 610.79145749 721.35750156 607.89111328 711.90722656 C606.41980444 707.10713186 604.96046635 702.30340233 603.5 697.5 C602.91672497 695.58331559 602.33339161 693.66664893 601.75 691.75 C572.875 596.875 544 502 479.25 289.25 C478.9607666 288.29996094 478.6715332 287.34992188 478.37353516 286.37109375 C477.79441008 284.46765302 477.21595191 282.56400925 476.63818359 280.66015625 C475.12106539 275.66420293 473.59014761 270.67302134 472.0390625 265.6875 C471.71873047 264.65173828 471.39839844 263.61597656 471.06835938 262.54882812 C470.4567675 260.5722341 469.84112908 258.59688582 469.22070312 256.62304688 C467.71414455 251.73814483 466.54492786 247.08599336 466 242 C465.34 242 464.68 242 464 242 C463.75233887 243.22364258 463.50467773 244.44728516 463.24951172 245.70800781 C461.88789835 251.8200066 459.94704094 257.72280135 458.0078125 263.671875 C457.62060028 264.87128723 457.23338806 266.07069946 456.83444214 267.30645752 C455.80975163 270.47849049 454.78166781 273.64937895 453.75170898 276.81970215 C452.30941253 281.26205389 450.87348303 285.70646756 449.4369812 290.1506958 C448.67478026 292.50754366 447.91129851 294.86397787 447.14627075 297.21990967 C445.04071444 303.71689382 442.99924763 310.2300667 441.00021362 316.76055908 C439.31776804 322.20957812 437.56412384 327.63540178 435.8125 333.0625 C435.42811768 334.25625244 435.04373535 335.45000488 434.64770508 336.67993164 C433.22803629 341.08883197 431.80688735 345.49725444 430.38562012 349.90563965 C428.98531392 354.24929302 427.58629179 358.59335875 426.1875 362.9375 C425.646698 364.61307983 425.646698 364.61307983 425.0949707 366.32250977 C423.36199447 371.7048307 421.65620182 377.09352477 420 382.5 C417.99649515 389.04020493 415.91346119 395.55304147 413.8125 402.0625 C413.42811768 403.25625244 413.04373535 404.45000488 412.64770508 405.67993164 C411.22803629 410.08883197 409.80688735 414.49725444 408.38562012 418.90563965 C406.98531392 423.24929302 405.58629179 427.59335875 404.1875 431.9375 C403.646698 433.61307983 403.646698 433.61307983 403.0949707 435.32250977 C401.36199447 440.7048307 399.65620182 446.09352477 398 451.5 C395.99649515 458.04020493 393.91346119 464.55304147 391.8125 471.0625 C391.42811768 472.25625244 391.04373535 473.45000488 390.64770508 474.67993164 C389.22803629 479.08883197 387.80688735 483.49725444 386.38562012 487.90563965 C384.98531392 492.24929302 383.58629179 496.59335875 382.1875 500.9375 C381.646698 502.61307983 381.646698 502.61307983 381.0949707 504.32250977 C379.36199447 509.7048307 377.65620182 515.09352477 376 520.5 C373.99649515 527.04020493 371.91346119 533.55304147 369.8125 540.0625 C369.42811768 541.25625244 369.04373535 542.45000488 368.64770508 543.67993164 C367.22803629 548.08883197 365.80688735 552.49725444 364.38562012 556.90563965 C362.98531392 561.24929302 361.58629179 565.59335875 360.1875 569.9375 C359.82696533 571.05455322 359.46643066 572.17160645 359.0949707 573.32250977 C357.36199447 578.7048307 355.65620182 584.09352477 354 589.5 C351.99649515 596.04020493 349.91346119 602.55304147 347.8125 609.0625 C347.42811768 610.25625244 347.04373535 611.45000488 346.64770508 612.67993164 C345.22803629 617.08883197 343.80688735 621.49725444 342.38562012 625.90563965 C340.98531392 630.24929302 339.58629179 634.59335875 338.1875 638.9375 C337.82696533 640.05455322 337.46643066 641.17160645 337.0949707 642.32250977 C335.36199447 647.7048307 333.65620182 653.09352477 332 658.5 C329.99649515 665.04020493 327.91346119 671.55304147 325.8125 678.0625 C325.42811768 679.25625244 325.04373535 680.45000488 324.64770508 681.67993164 C323.22803629 686.08883197 321.80688735 690.49725444 320.38562012 694.90563965 C318.98531392 699.24929302 317.58629179 703.59335875 316.1875 707.9375 C315.82696533 709.05455322 315.46643066 710.17160645 315.0949707 711.32250977 C312.99521965 717.84396913 310.94879771 724.3795808 308.94223022 730.93029785 C306.73709599 738.11442877 304.46408722 745.27747449 302.19897461 752.44287109 C301.60133494 754.33536927 301.00500883 756.22828269 300.40991211 758.12158203 C299.54315345 760.87887095 298.67242896 763.63487833 297.80078125 766.390625 C297.53413162 767.24150696 297.26748199 768.09238892 296.99275208 768.96905518 C295.11407183 774.88592817 295.11407183 774.88592817 294 776 C292.20305962 776.09639184 290.40229107 776.12187425 288.60276794 776.12025452 C286.84635483 776.12231651 286.84635483 776.12231651 285.05445862 776.12442017 C283.75830124 776.12082489 282.46214386 776.11722961 281.12670898 776.11352539 C279.75712079 776.11324352 278.38753244 776.11340125 277.01794434 776.1139679 C273.28877052 776.11425588 269.55962859 776.10835909 265.83046222 776.10139394 C261.93735587 776.09516047 258.04424887 776.09455661 254.15113831 776.09336853 C246.77401854 776.09025519 239.39691351 776.08204178 232.01980025 776.07201904 C223.62332457 776.06085797 215.22684821 776.05534747 206.83036697 776.05032361 C189.55356931 776.03985916 172.27678653 776.02212202 155 776 C152.84515749 767.69179999 150.9859293 759.35892651 149.31224823 750.94155788 C149.05811781 749.67556569 148.80398739 748.4095735 148.54215604 747.1052179 C147.84081838 743.61096424 147.14303558 740.11600907 146.44586364 736.62092223 C145.68522196 732.81097712 144.92122612 729.00170442 144.15766859 725.19234282 C142.82115501 718.52212707 141.48678017 711.85148627 140.15382195 705.18055916 C138.17156888 695.26019342 136.18601833 685.34048968 134.19983394 675.42091039 C130.65198649 657.70133478 127.10746774 639.98109456 123.56440331 622.26056202 C120.46295174 606.74874558 117.36050776 591.23712807 114.25706482 575.72570992 C113.84064426 573.64436398 113.42422387 571.56301801 113.00780365 569.48167201 C112.38027395 566.34516873 111.75274336 563.20866563 111.12521002 560.07216308 C105.29105727 530.91210408 99.45805431 501.75181526 93.62747955 472.59104061 C93.40770708 471.49188106 93.1879346 470.39272151 92.96150235 469.26025409 C91.1768549 460.33456792 89.39223873 451.40887549 87.60762488 442.48318259 C80.64880024 407.67896031 73.68642887 372.87544923 66.72119141 338.07250977 C58.89320534 298.95866469 51.06776826 259.84431093 43.2461648 220.72918898 C42.41176183 216.55645809 41.57735085 212.3837288 40.74293518 208.21100044 C40.53748753 207.18359238 40.33203988 206.15618431 40.12036654 205.09764267 C37.02178792 189.60244859 33.92123515 174.10765038 30.81968689 158.61305046 C27.29101011 140.9845912 23.76504777 123.35559148 20.24266565 105.72587334 C18.272764 95.86681594 16.30075922 86.00818484 14.32567683 76.15016396 C13.00462392 69.55541699 11.686396 62.96010932 10.37040993 56.3643494 C9.6218276 52.61283688 8.8720802 48.86156846 8.11888212 45.11097967 C7.30430527 41.05459435 6.49578402 36.99702417 5.68775177 32.9393301 C5.45744288 31.79743618 5.227134 30.65554225 4.98984605 29.47904548 C3.04617398 19.6743 1.56325443 9.90061141 0 0 Z " fill="#FEFEFE" transform="translate(174,852)"/>
<path d="M0 0 C9.61553023 -0.07005494 19.23097023 -0.12308914 28.84670162 -0.15543652 C33.31350266 -0.1709754 37.78012686 -0.19199323 42.24682617 -0.22631836 C46.57165279 -0.25933855 50.89631123 -0.27694108 55.22125435 -0.28463173 C56.85676273 -0.29009986 58.49226377 -0.30077287 60.1276989 -0.31719017 C87.97673239 -0.58518218 115.19100036 6.65510662 136 26 C136.48275391 26.43650879 136.96550781 26.87301758 137.46289062 27.32275391 C156.7183521 44.8417633 167.85389494 68.24089433 171 94 C171.13624764 97.02368479 171.13554928 100.04252354 171.1276505 103.06889898 C171.12930128 103.96586525 171.13095206 104.86283153 171.13265286 105.7869786 C171.13697766 108.80217637 171.13417657 111.81732528 171.13142776 114.8325243 C171.13307741 117.0215946 171.13516368 119.2106646 171.13764787 121.39973411 C171.14322426 127.445261 171.14254032 133.49077375 171.14087028 139.5363024 C171.14021569 145.42539163 171.14424772 151.31447647 171.1481343 157.20356418 C171.15600822 169.39819897 171.15909637 181.59283083 171.15958023 193.78746796 C171.16008249 206.14802124 171.1627281 218.50857125 171.16798782 230.86912346 C171.16848302 232.03962799 171.16848302 232.03962799 171.16898823 233.23377908 C171.17033822 236.41192291 171.17170088 239.59006674 171.17308033 242.76821056 C171.18938686 280.40403378 171.19576953 318.03985638 171.2005282 355.67568253 C171.20291112 374.41601227 171.20661454 393.15634166 171.2105653 411.89667113 C171.22323038 472.00674938 171.23401402 532.11682762 171.23740576 592.22690719 C171.237568 595.10015351 171.23773356 597.97339984 171.23790014 600.84664616 C171.23823394 606.60901101 171.23856442 612.37137587 171.2388947 618.13374072 C171.2392816 624.88010543 171.23967121 631.62647013 171.24006577 638.37283484 C171.24017818 640.30370118 171.2402896 642.23456751 171.24040002 644.16543385 C171.2439492 706.17381306 171.25902624 768.18218068 171.28233776 830.19055546 C171.29908068 874.74456842 171.31455501 919.29857919 171.31907272 963.85259533 C171.31916621 964.7689888 171.3192597 965.68538228 171.31935601 966.62954525 C171.32137513 986.74739165 171.32253112 1006.86523801 171.3228846 1026.9830845 C171.32302077 1034.18186193 171.32322977 1041.38063935 171.32347785 1048.57941678 C171.32353941 1050.37029348 171.32359773 1052.16117018 171.3236528 1053.95204689 C171.3245724 1082.48211227 171.33453804 1111.01216555 171.34911029 1139.54222695 C171.3637313 1168.28279488 171.36876502 1197.02334798 171.36069075 1225.76391898 C171.35957541 1229.73776758 171.35856474 1233.71161621 171.35761642 1237.68546486 C171.35742646 1238.46442981 171.35723649 1239.24339475 171.35704076 1240.0459647 C171.35430989 1252.36720746 171.36164019 1264.68842272 171.37318979 1277.0096595 C171.38434381 1289.13310577 171.38474862 1301.25651327 171.37381961 1313.37996015 C171.36826788 1319.86192357 171.36774565 1326.34381108 171.38032833 1332.82576863 C171.39169079 1338.72839176 171.38911688 1344.63084221 171.37566125 1350.53345945 C171.37323559 1352.64996814 171.37578165 1354.76649023 171.38405773 1356.88298413 C171.50048301 1388.76583978 163.92235863 1415.52179287 143 1440 C142.42894531 1440.67417969 141.85789062 1441.34835937 141.26953125 1442.04296875 C126.27345678 1458.27265346 100.90491879 1471.21120253 78.72014964 1472.09034652 C76.02735646 1472.12698415 73.33633941 1472.13043994 70.64330387 1472.12304783 C69.60869576 1472.12420167 68.57408765 1472.12535552 67.50812778 1472.12654433 C64.03079811 1472.12919758 60.55351445 1472.12469941 57.07618713 1472.12025452 C54.56226701 1472.12069048 52.04834694 1472.12156586 49.53442711 1472.12284368 C44.0633832 1472.12461558 38.59235362 1472.12327654 33.12131119 1472.11920547 C24.98608183 1472.11316877 16.85085932 1472.11286983 8.71562813 1472.11374746 C-4.96932716 1472.11506125 -18.65427761 1472.11172039 -32.33923149 1472.10573006 C-45.88975486 1472.09981376 -59.44027621 1472.09596426 -72.99080086 1472.09487724 C-74.25442735 1472.09477413 -74.25442735 1472.09477413 -75.54358166 1472.09466894 C-79.82176625 1472.09433061 -84.09995085 1472.09402923 -88.37813545 1472.09374207 C-118.68332539 1472.09164145 -148.98851271 1472.08490354 -179.29370117 1472.07543945 C-208.7354328 1472.06625563 -238.17716371 1472.05917172 -267.61889648 1472.05493164 C-268.5263618 1472.05480011 -269.43382711 1472.05466859 -270.36879137 1472.05453308 C-279.48190118 1472.05321456 -288.59501099 1472.05193875 -297.70812081 1472.05069422 C-316.27270416 1472.04815798 -334.83728745 1472.04533673 -353.40187073 1472.04234314 C-354.25544696 1472.04220585 -355.1090232 1472.04206856 -355.98846538 1472.04192711 C-382.15242104 1472.03770388 -408.31637626 1472.03227257 -434.48033142 1472.02565002 C-435.22317949 1472.02546247 -435.96602756 1472.02527491 -436.73138617 1472.02508167 C-466.82092432 1472.0174662 -496.91046212 1472.00857241 -527 1472 C-527 1395.44 -527 1318.88 -527 1240 C-488.97523438 1239.96261719 -450.95046875 1239.92523437 -411.7734375 1239.88671875 C-389.16450635 1239.85826082 -366.5555791 1239.82959998 -343.94665384 1239.79718363 C-330.68672647 1239.77818705 -317.42679892 1239.75932945 -304.16687074 1239.7409003 C-302.56303235 1239.73867085 -300.95919397 1239.73643704 -299.35535559 1239.73419879 C-273.79901782 1239.69856972 -248.24268145 1239.6725673 -222.68632778 1239.65161031 C-196.41467069 1239.6300156 -170.14304292 1239.5986414 -143.87141275 1239.55500887 C-140.158463 1239.54884687 -136.44551307 1239.54279635 -132.73256302 1239.53681374 C-132.00182034 1239.53563285 -131.27107765 1239.53445197 -130.51819125 1239.53323531 C-118.76786503 1239.51453321 -107.01755294 1239.50610249 -95.26721366 1239.50153876 C-83.44651384 1239.49672756 -71.62587115 1239.48079331 -59.80519973 1239.45433434 C-53.40359873 1239.44032869 -47.00208686 1239.43114511 -40.60046959 1239.43499184 C-34.73505361 1239.43840944 -28.8698278 1239.42799443 -23.00445075 1239.40676448 C-20.88712934 1239.40150907 -18.7697881 1239.40124851 -16.65246694 1239.40660437 C-5.33752191 1239.4323015 5.0283222 1239.04876476 16 1236 C17.09981294 1235.71209903 17.09981294 1235.71209903 18.22184432 1235.41838187 C43.13119994 1228.54788811 64.62915196 1212.07034802 78 1190 C88.81278555 1170.50040999 92.31647705 1151.04661491 92.25168228 1128.99439335 C92.25377166 1127.18766175 92.25673646 1125.38093099 92.26049101 1123.57420209 C92.26826018 1118.6182327 92.26362914 1113.66234151 92.25693511 1108.70637344 C92.25185429 1103.31123661 92.25838449 1097.91611162 92.26342177 1092.52097648 C92.27064238 1083.06812223 92.2704277 1073.61529083 92.26532745 1064.16243553 C92.25776379 1050.1056684 92.26162931 1036.04892055 92.26774407 1021.99215356 C92.27766772 998.34213844 92.27803379 974.69213234 92.27259064 951.04211617 C92.27234225 949.96237874 92.27234225 949.96237874 92.27208885 948.86082844 C92.27192299 948.1398476 92.27175713 947.41886676 92.27158624 946.67603801 C92.26653864 924.70538491 92.26523767 902.73473552 92.26763153 880.76408195 C92.26778649 879.29246802 92.2679408 877.82085408 92.26809447 876.34924014 C92.26871541 870.43532908 92.26935275 864.52141802 92.270014 858.60750697 C92.27184797 842.07587991 92.2729892 825.54425284 92.27358627 809.01262569 C92.27362721 807.88343111 92.27362721 807.88343111 92.27366897 806.73142451 C92.27448746 782.7460186 92.27223411 758.76061398 92.26788712 734.77520847 C92.26774662 733.99732846 92.26760612 733.21944844 92.26746136 732.41799631 C92.26517151 719.78597377 92.26273256 707.15395127 92.26028102 694.52192876 C92.25056894 644.42534151 92.2510188 594.32876494 92.26074219 544.23217773 C92.2631846 531.60769686 92.26560672 518.98321599 92.26788712 506.35873508 C92.26802801 505.58138161 92.26816891 504.80402814 92.26831407 504.00311851 C92.27262703 480.04346798 92.27445488 456.08381834 92.27358627 432.12416744 C92.2735591 431.37191135 92.27353194 430.61965526 92.27350394 429.84460353 C92.27287896 413.3306852 92.27161163 396.81676697 92.26976527 380.30284874 C92.26910699 374.39392985 92.26848083 368.48501095 92.26786385 362.57609206 C92.26770907 361.10612844 92.26755161 359.63616482 92.26739145 358.16620121 C92.26500507 336.2025379 92.2670356 314.23887877 92.27208885 292.27521598 C92.27225444 291.55547383 92.27242003 290.83573168 92.27259064 290.09417915 C92.272756 289.37576676 92.27292137 288.65735437 92.27309174 287.9171719 C92.2786102 263.67762945 92.27657116 239.43809859 92.26602915 215.19855756 C92.26015214 201.22417682 92.25977965 187.24982157 92.2673215 173.27544148 C92.27180287 163.94310137 92.26902124 154.61078172 92.26031196 145.27844464 C92.25555076 139.95993603 92.25393536 134.64147809 92.26112393 129.32297105 C92.26760193 124.48081664 92.2648146 119.63875769 92.2547626 114.79661018 C92.25275491 113.05950802 92.25406296 111.32239788 92.25917448 109.58530207 C92.34455084 78.34421016 83.35143365 52.23402127 61.75 29.3125 C44.43662252 12.81351484 23.46244274 4.16074358 0 1 C0 0.67 0 0.34 0 0 Z " fill="#0C316E" transform="translate(1162,620)"/>
<path d="M0 0 C31.17620208 -0.03241965 31.17620208 -0.03241965 43.27104187 -0.04443359 C44.02393564 -0.04518158 44.7768294 -0.04592956 45.55253813 -0.04670021 C95.42008069 -0.09616888 145.28762244 -0.14085482 195.15518188 -0.16937256 C196.11836707 -0.16992479 197.08155226 -0.17047702 198.07392488 -0.17104598 C219.00784255 -0.18301833 239.9417606 -0.19409896 260.87567922 -0.20426132 C271.14205446 -0.20925055 281.4084296 -0.21443678 291.67480469 -0.21972656 C293.20722506 -0.22051112 293.20722506 -0.22051112 294.77060342 -0.22131152 C327.86854149 -0.23834899 360.96645219 -0.26838832 394.06437369 -0.30518888 C428.08416695 -0.34294563 462.10394508 -0.3675479 496.12375895 -0.37565996 C500.93168432 -0.37681254 505.73960964 -0.37811508 510.54753494 -0.37950897 C511.49377941 -0.37977866 512.44002387 -0.38004836 513.41494241 -0.38032622 C528.63091821 -0.38504831 543.84684712 -0.40358763 559.06280382 -0.42732814 C574.36963955 -0.45091433 589.67642894 -0.45986261 604.98328219 -0.45400551 C614.07110835 -0.45096923 623.1587645 -0.45901995 632.24655987 -0.48319017 C638.32721397 -0.49825362 644.40775748 -0.49861003 650.48841939 -0.48732725 C653.94674723 -0.48132185 657.40475492 -0.48140669 660.86304764 -0.49953273 C692.08587367 -0.63449342 720.17295767 5.52962954 743.06640625 28.03125 C744.04649214 29.01863339 745.02448048 30.00810485 746 31 C746.83402344 31.8353125 747.66804688 32.670625 748.52734375 33.53125 C780.36174938 67.05260704 775 109.91400802 775 154 C1133.05 154 1491.1 154 1860 154 C1860 154.33 1860 154.66 1860 155 C1475.22 155 1090.44 155 694 155 C691.525 147.575 691.525 147.575 689 140 C677.5199888 114.16997479 657.03277329 94.74572699 630.89404297 84.14599609 C613.69831743 77.79007662 596.52042036 77.70500913 578.42422485 77.7215271 C575.92488563 77.71651941 573.42554802 77.71064223 570.92621267 77.70397437 C565.50871396 77.69150103 560.09126194 77.68512017 554.67374992 77.68421364 C546.61824342 77.68283212 538.56278282 77.67001572 530.50729177 77.6549259 C516.95374525 77.62985735 503.40020265 77.61395875 489.84663773 77.60334396 C476.43307279 77.59280864 463.01952263 77.57816228 449.60596848 77.55806351 C448.77096372 77.55681464 447.93595897 77.55556577 447.07565104 77.55427906 C442.83482929 77.54791503 438.59400765 77.54147792 434.35318606 77.53501268 C404.34028279 77.48938858 374.32737472 77.45292442 344.31445312 77.421875 C315.16307878 77.39169585 286.0117142 77.35735025 256.86035156 77.31738281 C255.51174004 77.31553631 255.51174004 77.31553631 254.13588384 77.3136525 C245.10674826 77.30128531 236.07761279 77.28883361 227.04847741 77.27632002 C208.65621013 77.25083186 190.2639421 77.22590759 171.87167358 77.20132446 C171.02608582 77.20019355 170.18049806 77.19906264 169.30928643 77.19789747 C112.87286872 77.12248269 56.4364352 77.06066362 0 77 C0 51.59 0 26.18 0 0 Z " fill="#3A94D8" transform="translate(635,543)"/>
<path d="M0 0 C1.43336793 0.01495934 2.8666822 0.03563868 4.2999115 0.06056213 C5.47055901 0.07497345 5.47055901 0.07497345 6.66485596 0.0896759 C9.25675655 0.12278273 11.84849465 0.16307017 14.44029236 0.2033844 C16.232477 0.22767412 18.02466773 0.25151824 19.81686401 0.27493286 C24.54340023 0.33788812 29.26982917 0.40692213 33.9962616 0.47718811 C38.81544594 0.5477685 43.63470659 0.61264697 48.45396423 0.67799377 C57.91693871 0.8071535 67.37980971 0.94272993 76.84263611 1.08229065 C76.91278007 9.1504896 76.96576876 17.21855682 76.99807262 25.2869873 C77.01359284 29.03527249 77.03457428 32.78334599 77.06895447 36.5315094 C77.1020442 40.16256222 77.11959103 43.79341412 77.12726784 47.42460632 C77.13534194 49.45371642 77.1586772 51.482748 77.18252563 53.51173401 C77.18740419 81.07277621 66.22425928 106.41816375 46.95982361 126.0940094 C29.39091149 143.26215465 5.12793013 154.93938172 -19.62355518 155.28606319 C-21.52902172 155.3155063 -21.52902172 155.3155063 -23.47298253 155.34554422 C-24.8761406 155.36233767 -26.27930142 155.37890213 -27.6824646 155.39526367 C-29.19156821 155.41580941 -30.70066869 155.43658547 -32.20976627 155.45756972 C-36.38943428 155.51373792 -40.56915825 155.56248517 -44.74894522 155.6088763 C-47.45678488 155.63905012 -50.16460573 155.67062552 -52.87242758 155.70235336 C-103.96893757 156.29144272 -155.06864171 156.21255489 -206.16771827 156.18582937 C-216.17032784 156.1806851 -226.17293583 156.17810564 -236.17554665 156.17716789 C-237.25665713 156.17706478 -237.25665713 156.17706478 -238.35960823 156.17695959 C-242.02294819 156.17662105 -245.68628816 156.17631974 -249.34962813 156.17603271 C-274.99835095 156.17395702 -300.64707059 156.16729067 -326.29579163 156.1577301 C-351.14377323 156.148479 -375.99175395 156.14142855 -400.83973694 156.13722229 C-401.61170556 156.13709076 -402.38367419 156.13695924 -403.1790358 156.13682373 C-410.93460892 156.1355047 -418.69018204 156.13422896 -426.44575516 156.13298487 C-442.23124201 156.13045169 -458.01672881 156.12763044 -473.80221558 156.12463379 C-474.52729671 156.1244965 -475.25237783 156.12435921 -475.99943112 156.12421776 C-524.05207679 156.11508637 -572.10472033 156.09901472 -620.15736389 156.08229065 C-620.15736389 130.34229065 -620.15736389 104.60229065 -620.15736389 78.08229065 C-613.56110016 78.07642441 -606.96483643 78.07055817 -600.16868591 78.06451416 C-556.59594304 78.02476889 -513.02320742 77.98169088 -469.45048523 77.92330933 C-468.33475769 77.92181598 -468.33475769 77.92181598 -467.1964902 77.92029246 C-451.03027836 77.89863258 -434.8640675 77.87630979 -418.69785752 77.85330437 C-410.76964628 77.84202611 -402.84143483 77.83089431 -394.91322327 77.81983948 C-393.72981153 77.81818563 -393.72981153 77.81818563 -392.52249249 77.81649837 C-366.96289708 77.78084679 -341.40330299 77.75486062 -315.84369167 77.73390096 C-289.57203459 77.71230625 -263.30040682 77.68093205 -237.02877665 77.63729952 C-233.31582689 77.63113752 -229.60287696 77.625087 -225.88992691 77.61910439 C-225.15918423 77.6179235 -224.42844155 77.61674262 -223.67555515 77.61552596 C-211.92522892 77.59682386 -200.17491683 77.58839314 -188.42457755 77.58382941 C-176.60387773 77.5790182 -164.78323504 77.56308396 -152.96256362 77.53662499 C-146.56096262 77.52261934 -140.15945076 77.51343576 -133.75783348 77.51728249 C-127.8924175 77.52070009 -122.02719169 77.51028508 -116.16181464 77.48905513 C-114.04449323 77.48379972 -111.92715199 77.48353916 -109.80983083 77.48889502 C-98.4948858 77.51459215 -88.12904169 77.13105541 -77.15736389 74.08229065 C-76.42415527 73.89035667 -75.69094664 73.69842268 -74.93551958 73.50067252 C-50.04862777 66.63637473 -28.49177248 50.15826523 -15.15736389 28.08229065 C-10.74130486 20.04572617 -6.90157843 11.67550261 -4.63002014 2.76979065 C-3.78165958 -0.25906691 -3.33903072 0.08702545 0 0 Z " fill="#071E44" transform="translate(1255.1573638916016,1781.917709350586)"/>
<path d="M0 0 C9.61553023 -0.07005494 19.23097023 -0.12308914 28.84670162 -0.15543652 C33.31350266 -0.1709754 37.78012686 -0.19199323 42.24682617 -0.22631836 C46.57165279 -0.25933855 50.89631123 -0.27694108 55.22125435 -0.28463173 C56.85676273 -0.29009986 58.49226377 -0.30077287 60.1276989 -0.31719017 C87.97673239 -0.58518218 115.19100036 6.65510662 136 26 C136.72413086 26.65476318 136.72413086 26.65476318 137.46289062 27.32275391 C156.75387148 44.87407956 167.78365248 68.22117096 171 94 C171.08742956 96.58230395 171.13363145 99.13623602 171.1241985 101.71743673 C171.12611563 102.84332921 171.12611563 102.84332921 171.12807148 103.99196699 C171.13113518 106.50822847 171.12707193 109.02442721 171.12304783 111.54068661 C171.12378756 113.37024239 171.12496625 115.19979804 171.12654433 117.02935329 C171.12961816 122.07655491 171.12643422 127.12373644 171.12226619 132.17093657 C171.11883647 137.65435037 171.12120194 143.1377621 171.12284368 148.6211763 C171.12491947 158.23791261 171.12327014 167.85464274 171.11920547 177.47137833 C171.11317819 191.77118423 171.11286727 206.07098637 171.11374746 220.3707933 C171.1151552 244.42364869 171.11172329 268.47650143 171.10573006 292.529356 C171.09980859 316.3510788 171.09595517 340.17280047 171.09487724 363.994524 C171.09482563 365.10403932 171.09482563 365.10403932 171.09477296 366.23596908 C171.09445977 372.99172929 171.09417208 379.7474895 171.09391499 386.50324971 C171.09327558 403.29768124 171.09231624 420.09211273 171.09113979 436.88654423 C171.09105982 438.03374513 171.09105982 438.03374513 171.09097823 439.20412182 C171.08835639 476.4117164 171.08204871 513.61931024 171.07543945 550.8269043 C171.0731478 563.73956298 171.07087244 576.65222167 171.06866455 589.56488037 C171.0685276 590.3657194 171.06839065 591.16655842 171.06824955 591.99166529 C171.06190604 629.2172767 171.05818007 666.44288823 171.05512976 703.66850003 C171.05493169 706.08507057 171.0547325 708.5016411 171.05453308 710.91821163 C171.0532133 726.93288541 171.05193865 742.94755919 171.05069422 758.96223297 C171.04821768 790.82774445 171.045476 822.69325591 171.04255217 854.55876735 C171.04241293 856.07630276 171.04227388 857.59383818 171.04213501 859.1113736 C171.03463652 941.03359636 171.02255203 1022.95581834 171 1162 C170.67 1162 170.34 1162 170 1162 C170 983.14 170 804.28 170 620 C144.59 620 119.18 620 93 620 C92.99191315 613.4413205 92.98382629 606.88264099 92.97549438 600.12521362 C92.9214148 556.80051969 92.86512331 513.47583042 92.79867554 470.15115356 C92.79754191 469.41156442 92.79640829 468.67197527 92.79524031 467.90997433 C92.77058732 451.83566233 92.74549437 435.76135104 92.71994839 419.68704044 C92.70742283 411.80389297 92.69499447 403.92074536 92.68261719 396.03759766 C92.68138386 395.25314103 92.68015054 394.4686844 92.67887984 393.66045635 C92.63896928 368.24636711 92.60547318 342.83227435 92.57531309 317.41817183 C92.54427873 291.29597543 92.50675386 265.17379618 92.46109388 239.05162106 C92.45464374 235.35975315 92.44826758 231.66788511 92.44193649 227.976017 C92.44068819 227.24942377 92.43943988 226.52283054 92.43815375 225.77421933 C92.41827153 214.09084474 92.40520583 202.40747206 92.39470672 190.72408569 C92.38399852 178.97060956 92.36590789 167.21716346 92.34083296 155.4637091 C92.32746819 149.09857963 92.31730304 142.73348761 92.31578636 136.36834335 C92.31432574 130.53627208 92.30368364 124.70429092 92.28586559 118.87224735 C92.28103184 116.76703749 92.27951239 114.66181672 92.28172119 112.55660246 C92.31022179 80.04600462 84.37586465 53.32105638 61.75 29.3125 C44.43662252 12.81351484 23.46244274 4.16074358 0 1 C0 0.67 0 0.34 0 0 Z " fill="#18487C" transform="translate(1162,620)"/>
<path d="M0 0 C25.41 0 50.82 0 77 0 C77 178.86 77 357.72 77 542 C435.38 542 793.76 542 1163 542 C1163 687.2 1163 832.4 1163 982 C1162.67 982 1162.34 982 1162 982 C1162 837.13 1162 692.26 1162 543 C778.54 543 395.08 543 0 543 C0 363.81 0 184.62 0 0 Z " fill="#1651AA" transform="translate(1333,1240)"/>
<path d="M0 0 C26.4 0 52.8 0 80 0 C80 178.86 80 357.72 80 542 C54.59 542 29.18 542 3 542 C2.99191315 535.43243805 2.98382629 528.8648761 2.97549438 522.09829712 C2.92142708 478.72611784 2.86514663 435.35394318 2.79867554 391.98178101 C2.79754191 391.24163963 2.79640829 390.50149825 2.79524031 389.73892835 C2.7705887 373.65354457 2.74549581 357.56816151 2.71994839 341.48277912 C2.70742257 333.59447658 2.69499425 325.70617388 2.68261719 317.81787109 C2.6807672 316.64040159 2.6807672 316.64040159 2.67887984 315.43914483 C2.63895214 289.99709648 2.6054627 264.55504461 2.57531309 239.11298295 C2.54429565 212.96729616 2.50678074 186.82162656 2.46109388 160.6759611 C2.45464351 156.98281018 2.44826739 153.28965915 2.44193649 149.59650803 C2.44068819 148.8696451 2.43943988 148.14278218 2.43815375 147.39389311 C2.41825292 135.69485122 2.40519859 123.99581124 2.39470672 112.29675755 C2.38401189 100.53438892 2.36593868 88.7720504 2.34083296 77.00970359 C2.32744684 70.63696861 2.31729975 64.26427125 2.31578636 57.89152145 C2.31433005 52.05719207 2.30373234 46.22295332 2.28586559 40.38865177 C2.28101576 38.27812955 2.27951998 36.16759638 2.28172119 34.05706973 C2.28422374 31.18634489 2.27446444 28.31590713 2.26171303 25.44521523 C2.26536271 24.62759966 2.26901239 23.80998409 2.27277267 22.9675923 C2.23438126 17.93908312 1.58847058 13.33676804 0.42829915 8.44137915 C0 6 0 6 0 0 Z " fill="#266FBE" transform="translate(1330,698)"/>
<path d="M0 0 C25.41 0 50.82 0 77 0 C77.1209091 34.50387541 77.1209091 34.50387541 77.14648438 49.03320312 C77.16424129 59.04016771 77.18504374 69.04705616 77.22631836 79.05395508 C77.25637243 86.34399031 77.2756107 93.63396339 77.28226548 100.92405885 C77.28615085 104.77832423 77.29517714 108.63241194 77.31719017 112.48661995 C77.33780943 116.12687257 77.34378349 119.76687721 77.33932304 123.40718269 C77.34052021 125.35452595 77.35652741 127.30184326 77.3732605 129.24911499 C77.33277922 141.01463395 75.36142845 152.48278632 71.3125 163.5625 C71.05686279 164.26737549 70.80122559 164.97225098 70.5378418 165.69848633 C61.43284529 189.80569467 42.58348303 210.76485623 19.24609375 221.85546875 C2.89305556 229 2.89305556 229 -3 229 C-2.85932413 228.09291542 -2.71864826 227.18583084 -2.57370949 226.25125885 C-0.93713358 214.67933055 -0.69314078 203.30442418 -0.68115234 191.63085938 C-0.67183333 189.53000003 -0.6616618 187.42914432 -0.65071106 185.32829285 C-0.62361924 179.67446963 -0.60832402 174.02067104 -0.59528303 168.36680031 C-0.57956052 162.43977692 -0.5527998 156.51280314 -0.5272522 150.58581543 C-0.48062487 139.38429662 -0.44380351 128.18276831 -0.41057932 116.9812026 C-0.372244 104.21925392 -0.32286403 91.45735526 -0.27259517 78.69544888 C-0.16951418 52.46366507 -0.08163442 26.23185992 0 0 Z " fill="#0E3983" transform="translate(1333,1783)"/>
<path d="M0 0 C25.41 0 50.82 0 77 0 C77.061875 10.23 77.12375 20.46 77.1875 31 C77.22846802 35.79337891 77.22846802 35.79337891 77.27026367 40.68359375 C77.27904041 43.26822535 77.28668152 45.85286115 77.29296875 48.4375 C77.3159906 50.3875293 77.3159906 50.3875293 77.33947754 52.37695312 C77.3471854 79.96081844 66.40023194 105.31686692 47.1171875 125.01171875 C29.20969334 142.5107226 4.46431077 154.24588162 -20.77124023 154.11352539 C-21.88468056 154.11374443 -21.88468056 154.11374443 -23.02061462 154.1139679 C-25.44997176 154.11327674 -27.87925017 154.10552203 -30.30859375 154.09765625 C-32.00252745 154.09578923 -33.69646169 154.09436667 -35.39039612 154.09336853 C-39.83073438 154.08956568 -44.2710395 154.07975462 -48.71136475 154.06866455 C-53.24962923 154.05840227 -57.78789911 154.05386062 -62.32617188 154.04882812 C-71.21746241 154.0381302 -80.10872844 154.0210808 -89 154 C-89 153.67 -89 153.34 -89 153 C-87.42025391 152.67128906 -87.42025391 152.67128906 -85.80859375 152.3359375 C-63.99881015 147.62092822 -45.75809315 138.96244882 -30 123 C-28.78183594 121.77990234 -28.78183594 121.77990234 -27.5390625 120.53515625 C-8.22903663 100.20361024 -0.83469651 73.77226263 -0.5859375 46.38671875 C-0.56829346 45.2006604 -0.55064941 44.01460205 -0.5324707 42.79260254 C-0.47010526 38.42436485 -0.42343719 34.05591433 -0.375 29.6875 C-0.25125 19.890625 -0.1275 10.09375 0 0 Z " fill="#082453" transform="translate(1255,1783)"/>
<path d="M0 0 C9.61553023 -0.07005494 19.23097023 -0.12308914 28.84670162 -0.15543652 C33.31350266 -0.1709754 37.78012686 -0.19199323 42.24682617 -0.22631836 C46.57165279 -0.25933855 50.89631123 -0.27694108 55.22125435 -0.28463173 C56.85676273 -0.29009986 58.49226377 -0.30077287 60.1276989 -0.31719017 C87.97673239 -0.58518218 115.19100036 6.65510662 136 26 C136.72413086 26.65476318 136.72413086 26.65476318 137.46289062 27.32275391 C152.2117997 40.74161052 162.6595992 57.46819641 167 77 C141.59 77 116.18 77 90 77 C88.68 73.7 87.36 70.4 86 67 C73.96969625 39.12305665 54.3983778 18.33515692 26.03710938 6.74316406 C17.68569651 3.69645975 8.78346757 2.16655429 0 1 C0 0.67 0 0.34 0 0 Z " fill="#26608C" transform="translate(1162,620)"/>
<path d="M0 0 C0.33 0 0.66 0 1 0 C1 3.63 1 7.26 1 11 C0.01 11 -0.98 11 -2 11 C-1.34 7.37 -0.68 3.74 0 0 Z " fill="#0B2D5E" transform="translate(1254,1771)"/>
</svg>
